<svg xmlns="http://www.w3.org/2000/svg" xmlns:xlink="http://www.w3.org/1999/xlink" width="1366" zoomAndPan="magnify" viewBox="0 0 1024.5 576" height="768" preserveAspectRatio="xMidYMid meet" version="1.0"><defs><clipPath id="450c156f8a"><path d="M 231.007812 6.898438 L 791 6.898438 L 791 567.898438 L 231.007812 567.898438 Z M 231.007812 6.898438 " clip-rule="nonzero"/></clipPath><clipPath id="4d2b86d45d"><path d="M 320.675781 6.183594 L 699.945312 6.183594 C 701.425781 6.1875 702.90625 6.222656 704.382812 6.292969 C 705.863281 6.367188 707.339844 6.476562 708.816406 6.621094 C 710.289062 6.765625 711.757812 6.945312 713.222656 7.164062 C 714.6875 7.378906 716.148438 7.632812 717.601562 7.921875 C 719.054688 8.210938 720.496094 8.535156 721.933594 8.894531 C 723.371094 9.253906 724.796875 9.648438 726.214844 10.078125 C 727.632812 10.503906 729.039062 10.96875 730.433594 11.46875 C 731.828125 11.964844 733.210938 12.496094 734.578125 13.0625 C 735.945312 13.628906 737.300781 14.226562 738.640625 14.859375 C 739.976562 15.492188 741.300781 16.15625 742.609375 16.855469 C 743.914062 17.550781 745.203125 18.28125 746.472656 19.042969 C 747.742188 19.800781 748.992188 20.59375 750.226562 21.414062 C 751.457031 22.234375 752.667969 23.085938 753.859375 23.96875 C 755.046875 24.847656 756.214844 25.757812 757.359375 26.695312 C 758.503906 27.632812 759.625 28.601562 760.722656 29.59375 C 761.820312 30.585938 762.894531 31.605469 763.941406 32.652344 C 764.988281 33.695312 766.007812 34.769531 767.003906 35.863281 C 768 36.960938 768.964844 38.078125 769.90625 39.222656 C 770.84375 40.363281 771.757812 41.53125 772.636719 42.71875 C 773.519531 43.90625 774.375 45.113281 775.195312 46.34375 C 776.019531 47.574219 776.8125 48.824219 777.574219 50.089844 C 778.335938 51.359375 779.0625 52.644531 779.761719 53.949219 C 780.460938 55.253906 781.125 56.574219 781.757812 57.910156 C 782.394531 59.25 782.992188 60.601562 783.558594 61.964844 C 784.125 63.332031 784.660156 64.710938 785.160156 66.105469 C 785.65625 67.496094 786.121094 68.902344 786.550781 70.316406 C 786.980469 71.730469 787.375 73.15625 787.738281 74.589844 C 788.097656 76.023438 788.421875 77.46875 788.710938 78.917969 C 789 80.367188 789.253906 81.824219 789.46875 83.289062 C 789.6875 84.75 789.867188 86.21875 790.015625 87.6875 C 790.160156 89.160156 790.269531 90.636719 790.339844 92.113281 C 790.414062 93.589844 790.449219 95.066406 790.449219 96.546875 L 790.449219 477.523438 C 790.449219 479 790.414062 480.480469 790.339844 481.957031 C 790.269531 483.433594 790.160156 484.90625 790.015625 486.378906 C 789.867188 487.851562 789.6875 489.316406 789.46875 490.78125 C 789.253906 492.242188 789 493.699219 788.710938 495.152344 C 788.421875 496.601562 788.097656 498.042969 787.738281 499.476562 C 787.375 500.914062 786.980469 502.335938 786.550781 503.753906 C 786.121094 505.167969 785.65625 506.570312 785.160156 507.964844 C 784.660156 509.355469 784.125 510.734375 783.558594 512.101562 C 782.992188 513.46875 782.394531 514.820312 781.757812 516.15625 C 781.125 517.492188 780.460938 518.8125 779.761719 520.117188 C 779.0625 521.421875 778.335938 522.707031 777.574219 523.976562 C 776.8125 525.246094 776.019531 526.496094 775.195312 527.722656 C 774.375 528.953125 773.519531 530.164062 772.636719 531.351562 C 771.757812 532.539062 770.84375 533.703125 769.90625 534.847656 C 768.964844 535.988281 768 537.109375 767.003906 538.203125 C 766.007812 539.300781 764.988281 540.371094 763.941406 541.417969 C 762.894531 542.460938 761.820312 543.480469 760.722656 544.476562 C 759.625 545.46875 758.503906 546.433594 757.359375 547.371094 C 756.214844 548.308594 755.046875 549.21875 753.859375 550.101562 C 752.667969 550.980469 751.457031 551.832031 750.226562 552.65625 C 748.992188 553.476562 747.742188 554.265625 746.472656 555.027344 C 745.203125 555.789062 743.914062 556.515625 742.609375 557.214844 C 741.300781 557.910156 739.976562 558.574219 738.640625 559.207031 C 737.300781 559.839844 735.945312 560.4375 734.578125 561.003906 C 733.210938 561.570312 731.828125 562.101562 730.433594 562.601562 C 729.039062 563.097656 727.632812 563.5625 726.214844 563.992188 C 724.796875 564.421875 723.371094 564.816406 721.933594 565.175781 C 720.496094 565.535156 719.054688 565.859375 717.601562 566.148438 C 716.148438 566.433594 714.6875 566.6875 713.222656 566.90625 C 711.757812 567.121094 710.289062 567.304688 708.8125 567.449219 C 707.339844 567.59375 705.863281 567.703125 704.382812 567.773438 C 702.90625 567.847656 701.425781 567.882812 699.945312 567.882812 L 320.675781 567.882812 C 319.195312 567.882812 317.714844 567.847656 316.234375 567.773438 C 314.753906 567.703125 313.277344 567.59375 311.804688 567.449219 C 310.332031 567.304688 308.859375 567.121094 307.394531 566.90625 C 305.929688 566.6875 304.472656 566.433594 303.019531 566.148438 C 301.566406 565.859375 300.121094 565.535156 298.683594 565.175781 C 297.246094 564.816406 295.820312 564.421875 294.402344 563.992188 C 292.984375 563.5625 291.578125 563.097656 290.183594 562.601562 C 288.789062 562.101562 287.410156 561.570312 286.039062 561.003906 C 284.671875 560.4375 283.316406 559.839844 281.980469 559.207031 C 280.640625 558.574219 279.316406 557.910156 278.011719 557.214844 C 276.707031 556.515625 275.417969 555.789062 274.144531 555.027344 C 272.875 554.265625 271.625 553.476562 270.394531 552.65625 C 269.160156 551.832031 267.949219 550.980469 266.761719 550.101562 C 265.570312 549.21875 264.402344 548.308594 263.257812 547.371094 C 262.113281 546.433594 260.992188 545.46875 259.894531 544.476562 C 258.796875 543.480469 257.726562 542.460938 256.679688 541.417969 C 255.628906 540.371094 254.609375 539.300781 253.613281 538.203125 C 252.621094 537.109375 251.652344 535.988281 250.714844 534.847656 C 249.773438 533.703125 248.863281 532.539062 247.980469 531.351562 C 247.097656 530.164062 246.246094 528.953125 245.421875 527.722656 C 244.597656 526.496094 243.808594 525.246094 243.046875 523.976562 C 242.285156 522.707031 241.554688 521.421875 240.855469 520.117188 C 240.15625 518.8125 239.492188 517.492188 238.859375 516.15625 C 238.226562 514.820312 237.625 513.46875 237.058594 512.101562 C 236.492188 510.734375 235.960938 509.355469 235.460938 507.964844 C 234.960938 506.570312 234.496094 505.167969 234.066406 503.753906 C 233.636719 502.335938 233.242188 500.914062 232.882812 499.476562 C 232.523438 498.042969 232.199219 496.601562 231.910156 495.152344 C 231.621094 493.699219 231.367188 492.242188 231.148438 490.78125 C 230.933594 489.316406 230.75 487.851562 230.605469 486.378906 C 230.460938 484.90625 230.351562 483.433594 230.277344 481.957031 C 230.207031 480.480469 230.167969 479 230.167969 477.523438 L 230.167969 96.546875 C 230.167969 95.066406 230.207031 93.589844 230.277344 92.113281 C 230.351562 90.636719 230.460938 89.160156 230.605469 87.6875 C 230.75 86.21875 230.933594 84.75 231.148438 83.289062 C 231.367188 81.824219 231.621094 80.367188 231.910156 78.917969 C 232.199219 77.46875 232.523438 76.023438 232.882812 74.589844 C 233.242188 73.15625 233.636719 71.730469 234.066406 70.316406 C 234.496094 68.902344 234.960938 67.496094 235.460938 66.105469 C 235.960938 64.710938 236.492188 63.332031 237.058594 61.964844 C 237.625 60.601562 238.226562 59.25 238.859375 57.910156 C 239.492188 56.574219 240.15625 55.253906 240.855469 53.949219 C 241.554688 52.644531 242.285156 51.359375 243.046875 50.089844 C 243.808594 48.824219 244.597656 47.574219 245.421875 46.34375 C 246.246094 45.113281 247.097656 43.90625 247.980469 42.71875 C 248.863281 41.53125 249.773438 40.363281 250.714844 39.222656 C 251.652344 38.078125 252.621094 36.960938 253.613281 35.863281 C 254.609375 34.769531 255.628906 33.695312 256.679688 32.652344 C 257.726562 31.605469 258.796875 30.585938 259.894531 29.59375 C 260.992188 28.601562 262.113281 27.632812 263.257812 26.695312 C 264.40625 25.757812 265.570312 24.847656 266.761719 23.96875 C 267.949219 23.085938 269.160156 22.234375 270.394531 21.414062 C 271.625 20.59375 272.875 19.800781 274.144531 19.042969 C 275.417969 18.28125 276.707031 17.550781 278.011719 16.855469 C 279.316406 16.15625 280.640625 15.492188 281.980469 14.859375 C 283.316406 14.226562 284.671875 13.628906 286.039062 13.0625 C 287.410156 12.496094 288.789062 11.964844 290.183594 11.46875 C 291.578125 10.96875 292.984375 10.503906 294.402344 10.078125 C 295.820312 9.648438 297.246094 9.253906 298.683594 8.894531 C 300.121094 8.535156 301.566406 8.210938 303.019531 7.921875 C 304.472656 7.632812 305.929688 7.378906 307.394531 7.164062 C 308.859375 6.945312 310.332031 6.765625 311.804688 6.621094 C 313.277344 6.476562 314.753906 6.367188 316.234375 6.292969 C 317.714844 6.222656 319.195312 6.1875 320.675781 6.183594 Z M 320.675781 6.183594 " clip-rule="nonzero"/></clipPath><linearGradient x1="255.753653" gradientTransform="matrix(4.376501, 0, 0, 4.369489, -886.88851, -1852.289147)" y1="554.196328" x2="382.744513" gradientUnits="userSpaceOnUse" y2="424.986833" id="5758ba82f1"><stop stop-opacity="1" stop-color="rgb(2.69928%, 0.39978%, 20.799255%)" offset="0"/><stop stop-opacity="1" stop-color="rgb(2.867126%, 0.480652%, 20.849609%)" offset="0.0625"/><stop stop-opacity="1" stop-color="rgb(3.189087%, 0.637817%, 20.94574%)" offset="0.0703125"/><stop stop-opacity="1" stop-color="rgb(3.500366%, 0.788879%, 21.038818%)" offset="0.078125"/><stop stop-opacity="1" stop-color="rgb(3.81012%, 0.939941%, 21.131897%)" offset="0.0859375"/><stop stop-opacity="1" stop-color="rgb(4.121399%, 1.091003%, 21.224976%)" offset="0.09375"/><stop stop-opacity="1" stop-color="rgb(4.431152%, 1.243591%, 21.31958%)" offset="0.101563"/><stop stop-opacity="1" stop-color="rgb(4.742432%, 1.394653%, 21.412659%)" offset="0.109375"/><stop stop-opacity="1" stop-color="rgb(5.052185%, 1.545715%, 21.505737%)" offset="0.117188"/><stop stop-opacity="1" stop-color="rgb(5.363464%, 1.696777%, 21.598816%)" offset="0.125"/><stop stop-opacity="1" stop-color="rgb(5.674744%, 1.847839%, 21.691895%)" offset="0.132812"/><stop stop-opacity="1" stop-color="rgb(5.984497%, 1.998901%, 21.784973%)" offset="0.140625"/><stop stop-opacity="1" stop-color="rgb(6.295776%, 2.151489%, 21.878052%)" offset="0.148438"/><stop stop-opacity="1" stop-color="rgb(6.60553%, 2.302551%, 21.97113%)" offset="0.15625"/><stop stop-opacity="1" stop-color="rgb(6.916809%, 2.453613%, 22.065735%)" offset="0.164063"/><stop stop-opacity="1" stop-color="rgb(7.226562%, 2.604675%, 22.158813%)" offset="0.171875"/><stop stop-opacity="1" stop-color="rgb(7.537842%, 2.755737%, 22.251892%)" offset="0.179688"/><stop stop-opacity="1" stop-color="rgb(7.847595%, 2.908325%, 22.344971%)" offset="0.1875"/><stop stop-opacity="1" stop-color="rgb(8.158875%, 3.059387%, 22.438049%)" offset="0.195313"/><stop stop-opacity="1" stop-color="rgb(8.468628%, 3.210449%, 22.531128%)" offset="0.203125"/><stop stop-opacity="1" stop-color="rgb(8.779907%, 3.361511%, 22.624207%)" offset="0.210938"/><stop stop-opacity="1" stop-color="rgb(9.091187%, 3.512573%, 22.717285%)" offset="0.21875"/><stop stop-opacity="1" stop-color="rgb(9.40094%, 3.663635%, 22.810364%)" offset="0.226563"/><stop stop-opacity="1" stop-color="rgb(9.712219%, 3.816223%, 22.904968%)" offset="0.234375"/><stop stop-opacity="1" stop-color="rgb(10.021973%, 3.967285%, 22.998047%)" offset="0.242188"/><stop stop-opacity="1" stop-color="rgb(10.333252%, 4.118347%, 23.091125%)" offset="0.25"/><stop stop-opacity="1" stop-color="rgb(10.643005%, 4.269409%, 23.184204%)" offset="0.257813"/><stop stop-opacity="1" stop-color="rgb(10.954285%, 4.420471%, 23.277283%)" offset="0.265625"/><stop stop-opacity="1" stop-color="rgb(11.264038%, 4.571533%, 23.370361%)" offset="0.273438"/><stop stop-opacity="1" stop-color="rgb(11.575317%, 4.724121%, 23.46344%)" offset="0.28125"/><stop stop-opacity="1" stop-color="rgb(11.885071%, 4.875183%, 23.556519%)" offset="0.289062"/><stop stop-opacity="1" stop-color="rgb(12.19635%, 5.026245%, 23.651123%)" offset="0.296875"/><stop stop-opacity="1" stop-color="rgb(12.507629%, 5.177307%, 23.744202%)" offset="0.304688"/><stop stop-opacity="1" stop-color="rgb(12.817383%, 5.328369%, 23.83728%)" offset="0.3125"/><stop stop-opacity="1" stop-color="rgb(13.128662%, 5.480957%, 23.930359%)" offset="0.320312"/><stop stop-opacity="1" stop-color="rgb(13.438416%, 5.632019%, 24.023438%)" offset="0.328125"/><stop stop-opacity="1" stop-color="rgb(13.749695%, 5.783081%, 24.116516%)" offset="0.335938"/><stop stop-opacity="1" stop-color="rgb(14.059448%, 5.934143%, 24.209595%)" offset="0.34375"/><stop stop-opacity="1" stop-color="rgb(14.370728%, 6.085205%, 24.302673%)" offset="0.351563"/><stop stop-opacity="1" stop-color="rgb(14.680481%, 6.236267%, 24.397278%)" offset="0.359375"/><stop stop-opacity="1" stop-color="rgb(14.99176%, 6.388855%, 24.490356%)" offset="0.367188"/><stop stop-opacity="1" stop-color="rgb(15.301514%, 6.539917%, 24.583435%)" offset="0.375"/><stop stop-opacity="1" stop-color="rgb(15.612793%, 6.690979%, 24.676514%)" offset="0.382813"/><stop stop-opacity="1" stop-color="rgb(15.924072%, 6.842041%, 24.769592%)" offset="0.390625"/><stop stop-opacity="1" stop-color="rgb(16.233826%, 6.993103%, 24.862671%)" offset="0.398438"/><stop stop-opacity="1" stop-color="rgb(16.545105%, 7.145691%, 24.95575%)" offset="0.40625"/><stop stop-opacity="1" stop-color="rgb(16.854858%, 7.296753%, 25.048828%)" offset="0.414063"/><stop stop-opacity="1" stop-color="rgb(17.166138%, 7.447815%, 25.143433%)" offset="0.421875"/><stop stop-opacity="1" stop-color="rgb(17.475891%, 7.598877%, 25.236511%)" offset="0.429688"/><stop stop-opacity="1" stop-color="rgb(17.78717%, 7.749939%, 25.32959%)" offset="0.4375"/><stop stop-opacity="1" stop-color="rgb(18.096924%, 7.901001%, 25.422668%)" offset="0.445313"/><stop stop-opacity="1" stop-color="rgb(18.408203%, 8.053589%, 25.515747%)" offset="0.453125"/><stop stop-opacity="1" stop-color="rgb(18.717957%, 8.204651%, 25.608826%)" offset="0.460938"/><stop stop-opacity="1" stop-color="rgb(19.029236%, 8.355713%, 25.701904%)" offset="0.46875"/><stop stop-opacity="1" stop-color="rgb(19.340515%, 8.506775%, 25.794983%)" offset="0.476563"/><stop stop-opacity="1" stop-color="rgb(19.650269%, 8.657837%, 25.888062%)" offset="0.484375"/><stop stop-opacity="1" stop-color="rgb(19.961548%, 8.808899%, 25.982666%)" offset="0.492188"/><stop stop-opacity="1" stop-color="rgb(20.271301%, 8.961487%, 26.075745%)" offset="0.494581"/><stop stop-opacity="1" stop-color="rgb(20.426941%, 9.037781%, 26.123047%)" offset="0.5"/><stop stop-opacity="1" stop-color="rgb(20.582581%, 9.112549%, 26.168823%)" offset="0.505419"/><stop stop-opacity="1" stop-color="rgb(20.73822%, 9.188843%, 26.216125%)" offset="0.507813"/><stop stop-opacity="1" stop-color="rgb(20.892334%, 9.263611%, 26.261902%)" offset="0.515625"/><stop stop-opacity="1" stop-color="rgb(21.203613%, 9.414673%, 26.35498%)" offset="0.523438"/><stop stop-opacity="1" stop-color="rgb(21.513367%, 9.565735%, 26.448059%)" offset="0.53125"/><stop stop-opacity="1" stop-color="rgb(21.824646%, 9.718323%, 26.541138%)" offset="0.539063"/><stop stop-opacity="1" stop-color="rgb(22.134399%, 9.869385%, 26.634216%)" offset="0.546875"/><stop stop-opacity="1" stop-color="rgb(22.445679%, 10.020447%, 26.728821%)" offset="0.554688"/><stop stop-opacity="1" stop-color="rgb(22.756958%, 10.171509%, 26.821899%)" offset="0.5625"/><stop stop-opacity="1" stop-color="rgb(23.066711%, 10.322571%, 26.914978%)" offset="0.570313"/><stop stop-opacity="1" stop-color="rgb(23.377991%, 10.473633%, 27.008057%)" offset="0.578125"/><stop stop-opacity="1" stop-color="rgb(23.687744%, 10.626221%, 27.101135%)" offset="0.585938"/><stop stop-opacity="1" stop-color="rgb(23.999023%, 10.777283%, 27.194214%)" offset="0.59375"/><stop stop-opacity="1" stop-color="rgb(24.308777%, 10.928345%, 27.287292%)" offset="0.601563"/><stop stop-opacity="1" stop-color="rgb(24.620056%, 11.079407%, 27.380371%)" offset="0.609375"/><stop stop-opacity="1" stop-color="rgb(24.92981%, 11.230469%, 27.474976%)" offset="0.617188"/><stop stop-opacity="1" stop-color="rgb(25.241089%, 11.381531%, 27.568054%)" offset="0.625"/><stop stop-opacity="1" stop-color="rgb(25.550842%, 11.534119%, 27.661133%)" offset="0.632813"/><stop stop-opacity="1" stop-color="rgb(25.862122%, 11.685181%, 27.754211%)" offset="0.640625"/><stop stop-opacity="1" stop-color="rgb(26.173401%, 11.836243%, 27.84729%)" offset="0.648438"/><stop stop-opacity="1" stop-color="rgb(26.483154%, 11.987305%, 27.940369%)" offset="0.65625"/><stop stop-opacity="1" stop-color="rgb(26.794434%, 12.138367%, 28.033447%)" offset="0.664063"/><stop stop-opacity="1" stop-color="rgb(27.104187%, 12.290955%, 28.126526%)" offset="0.671875"/><stop stop-opacity="1" stop-color="rgb(27.415466%, 12.442017%, 28.22113%)" offset="0.679688"/><stop stop-opacity="1" stop-color="rgb(27.72522%, 12.593079%, 28.314209%)" offset="0.6875"/><stop stop-opacity="1" stop-color="rgb(28.036499%, 12.744141%, 28.407288%)" offset="0.695313"/><stop stop-opacity="1" stop-color="rgb(28.346252%, 12.895203%, 28.500366%)" offset="0.703125"/><stop stop-opacity="1" stop-color="rgb(28.657532%, 13.046265%, 28.593445%)" offset="0.710938"/><stop stop-opacity="1" stop-color="rgb(28.967285%, 13.198853%, 28.686523%)" offset="0.71875"/><stop stop-opacity="1" stop-color="rgb(29.278564%, 13.349915%, 28.779602%)" offset="0.726563"/><stop stop-opacity="1" stop-color="rgb(29.589844%, 13.500977%, 28.872681%)" offset="0.734375"/><stop stop-opacity="1" stop-color="rgb(29.899597%, 13.652039%, 28.967285%)" offset="0.742188"/><stop stop-opacity="1" stop-color="rgb(30.210876%, 13.803101%, 29.060364%)" offset="0.75"/><stop stop-opacity="1" stop-color="rgb(30.52063%, 13.955688%, 29.153442%)" offset="0.757813"/><stop stop-opacity="1" stop-color="rgb(30.831909%, 14.10675%, 29.246521%)" offset="0.765625"/><stop stop-opacity="1" stop-color="rgb(31.141663%, 14.257812%, 29.3396%)" offset="0.773438"/><stop stop-opacity="1" stop-color="rgb(31.452942%, 14.408875%, 29.432678%)" offset="0.78125"/><stop stop-opacity="1" stop-color="rgb(31.762695%, 14.559937%, 29.525757%)" offset="0.789062"/><stop stop-opacity="1" stop-color="rgb(32.073975%, 14.710999%, 29.618835%)" offset="0.796875"/><stop stop-opacity="1" stop-color="rgb(32.383728%, 14.863586%, 29.711914%)" offset="0.804688"/><stop stop-opacity="1" stop-color="rgb(32.695007%, 15.014648%, 29.806519%)" offset="0.8125"/><stop stop-opacity="1" stop-color="rgb(33.006287%, 15.16571%, 29.899597%)" offset="0.820312"/><stop stop-opacity="1" stop-color="rgb(33.31604%, 15.316772%, 29.992676%)" offset="0.828125"/><stop stop-opacity="1" stop-color="rgb(33.627319%, 15.467834%, 30.085754%)" offset="0.835938"/><stop stop-opacity="1" stop-color="rgb(33.937073%, 15.618896%, 30.178833%)" offset="0.84375"/><stop stop-opacity="1" stop-color="rgb(34.248352%, 15.771484%, 30.271912%)" offset="0.851562"/><stop stop-opacity="1" stop-color="rgb(34.558105%, 15.922546%, 30.36499%)" offset="0.859375"/><stop stop-opacity="1" stop-color="rgb(34.869385%, 16.073608%, 30.458069%)" offset="0.867188"/><stop stop-opacity="1" stop-color="rgb(35.179138%, 16.22467%, 30.552673%)" offset="0.875"/><stop stop-opacity="1" stop-color="rgb(35.490417%, 16.375732%, 30.645752%)" offset="0.882812"/><stop stop-opacity="1" stop-color="rgb(35.800171%, 16.52832%, 30.738831%)" offset="0.890625"/><stop stop-opacity="1" stop-color="rgb(36.11145%, 16.679382%, 30.831909%)" offset="0.898438"/><stop stop-opacity="1" stop-color="rgb(36.422729%, 16.830444%, 30.924988%)" offset="0.90625"/><stop stop-opacity="1" stop-color="rgb(36.732483%, 16.981506%, 31.018066%)" offset="0.914063"/><stop stop-opacity="1" stop-color="rgb(37.043762%, 17.132568%, 31.111145%)" offset="0.921875"/><stop stop-opacity="1" stop-color="rgb(37.353516%, 17.28363%, 31.204224%)" offset="0.929688"/><stop stop-opacity="1" stop-color="rgb(37.664795%, 17.436218%, 31.298828%)" offset="0.9375"/><stop stop-opacity="1" stop-color="rgb(37.908936%, 17.555237%, 31.37207%)" offset="1"/></linearGradient></defs><g clip-path="url(#450c156f8a)"><g clip-path="url(#4d2b86d45d)"><path fill="url(#5758ba82f1)" d="M 231.007812 6.898438 L 231.007812 567.882812 L 790.449219 567.882812 L 790.449219 6.898438 Z M 231.007812 6.898438 " fill-rule="nonzero"/></g></g><path fill="#ffffff" d="M 514.511719 247.949219 C 528.820312 247.949219 539.667969 244.890625 547.058594 238.628906 C 554.449219 232.367188 558.144531 223.25 558.144531 211.132812 C 558.144531 199.167969 554.449219 190.078125 547.058594 183.867188 C 539.617188 177.496094 528.816406 174.308594 514.511719 174.308594 L 464.269531 174.308594 L 464.269531 247.953125 L 514.511719 247.953125 M 517.574219 400.128906 C 535.8125 400.128906 549.492188 396.328125 558.613281 388.710938 C 567.890625 381.101562 572.53125 369.605469 572.53125 354.222656 C 572.53125 339.148438 567.96875 327.890625 558.847656 320.433594 C 549.730469 312.824219 535.972656 309.015625 517.578125 309.015625 L 464.273438 309.015625 L 464.273438 400.140625 L 517.578125 400.140625 M 602.015625 274.996094 C 621.511719 280.589844 636.605469 290.921875 647.296875 305.988281 C 657.992188 321.054688 663.335938 339.546875 663.339844 361.457031 C 663.339844 395.011719 651.859375 420.027344 628.902344 436.496094 C 605.949219 452.964844 571.046875 461.199219 524.1875 461.199219 L 373.476562 461.199219 L 373.476562 113.34375 L 509.804688 113.34375 C 558.703125 113.34375 594.085938 120.640625 615.9375 135.246094 C 637.949219 149.851562 648.957031 173.234375 648.957031 205.394531 C 648.957031 222.332031 644.949219 236.777344 636.929688 248.742188 C 628.914062 260.546875 617.238281 269.277344 602.023438 275.074219 " fill-opacity="1" fill-rule="nonzero"/></svg>