<svg xmlns="http://www.w3.org/2000/svg" xmlns:xlink="http://www.w3.org/1999/xlink" width="300" zoomAndPan="magnify" viewBox="0 0 224.87999 225" height="300" preserveAspectRatio="xMidYMid meet" version="1.0"><defs><clipPath id="78575fc267"><path d="M 12.085938 0.0585938 L 107 0.0585938 L 107 163 L 12.085938 163 Z M 12.085938 0.0585938 " clip-rule="nonzero"/></clipPath><clipPath id="de0027d013"><path d="M 18 116 L 207 116 L 207 224.9375 L 18 224.9375 Z M 18 116 " clip-rule="nonzero"/></clipPath><clipPath id="e15a884ab8"><path d="M 118 0.0585938 L 212.980469 0.0585938 L 212.980469 163 L 118 163 Z M 118 0.0585938 " clip-rule="nonzero"/></clipPath></defs><g clip-path="url(#78575fc267)"><path fill="#009cdf" d="M 12.234375 54.269531 L 106.261719 0.0585938 L 106.277344 41.347656 L 88.285156 51.65625 L 88.285156 31.199219 L 30.273438 64.660156 L 30.273438 131.628906 L 88.285156 98.136719 L 88.285156 77.957031 L 106.292969 67.648438 L 106.308594 108.511719 L 12.285156 162.753906 Z M 12.234375 54.269531 " fill-opacity="1" fill-rule="nonzero"/></g><path fill="#004a89" d="M 70.65625 87.949219 L 47.960938 101.039062 L 47.890625 74.820312 L 70.65625 61.765625 Z M 70.65625 87.949219 " fill-opacity="1" fill-rule="nonzero"/><g clip-path="url(#de0027d013)"><path fill="#004a89" d="M 57.1875 148.386719 L 133.164062 192.230469 L 112.484375 204.15625 L 54.460938 170.699219 L 63.933594 165.238281 L 45.945312 154.867188 L 18.480469 170.710938 L 112.511719 224.941406 L 169.117188 192.238281 L 93.152344 148.378906 L 112.503906 137.21875 L 170.511719 170.683594 L 159.871094 176.878906 L 177.796875 187.285156 L 206.507812 170.671875 L 112.503906 116.421875 Z M 57.1875 148.386719 " fill-opacity="1" fill-rule="nonzero"/></g><g clip-path="url(#e15a884ab8)"><path fill="#004a89" d="M 212.757812 98.867188 L 136.746094 55.074219 L 136.746094 31.191406 L 194.761719 64.667969 L 194.761719 75.601562 L 212.765625 85.992188 L 212.785156 54.300781 L 118.769531 0.0585938 L 118.753906 65.460938 L 194.816406 109.292969 L 194.761719 131.613281 L 136.746094 98.15625 L 136.746094 86.035156 L 118.742188 75.71875 L 118.71875 108.554688 L 212.742188 162.757812 Z M 212.757812 98.867188 " fill-opacity="1" fill-rule="nonzero"/></g></svg>