<svg xmlns="http://www.w3.org/2000/svg" xmlns:xlink="http://www.w3.org/1999/xlink" width="300" zoomAndPan="magnify" viewBox="0 0 224.87999 225" height="300" preserveAspectRatio="xMidYMid meet" version="1.0"><defs><clipPath id="77473e289c"><path d="M 1.894531 1.957031 L 223.027344 1.957031 L 223.027344 223.089844 L 1.894531 223.089844 Z M 1.894531 1.957031 " clip-rule="nonzero"/></clipPath></defs><g clip-path="url(#77473e289c)"><path fill="#f03c2e" d="M 218.855469 102.675781 L 122.308594 6.128906 C 121.648438 5.46875 120.929688 4.878906 120.152344 4.359375 C 119.375 3.839844 118.554688 3.398438 117.691406 3.042969 C 116.828125 2.683594 115.9375 2.414062 115.019531 2.230469 C 114.101562 2.050781 113.175781 1.957031 112.242188 1.957031 C 111.304688 1.957031 110.378906 2.050781 109.460938 2.230469 C 108.546875 2.414062 107.65625 2.683594 106.792969 3.042969 C 105.929688 3.398438 105.105469 3.839844 104.328125 4.359375 C 103.550781 4.878906 102.832031 5.46875 102.171875 6.128906 L 82.132812 26.171875 L 107.5625 51.601562 C 113.476562 49.527344 120.25 50.945312 124.960938 55.65625 C 126.085938 56.78125 127.03125 58.035156 127.796875 59.425781 C 128.566406 60.816406 129.128906 62.285156 129.480469 63.832031 C 129.835938 65.378906 129.972656 66.945312 129.886719 68.53125 C 129.800781 70.117188 129.496094 71.660156 128.976562 73.160156 L 153.488281 97.671875 C 159.417969 95.625 166.257812 96.945312 170.992188 101.695312 C 171.386719 102.085938 171.757812 102.496094 172.109375 102.925781 C 172.464844 103.355469 172.792969 103.800781 173.101562 104.261719 C 173.410156 104.722656 173.695312 105.199219 173.957031 105.6875 C 174.21875 106.179688 174.457031 106.679688 174.667969 107.191406 C 174.882812 107.707031 175.070312 108.226562 175.230469 108.757812 C 175.390625 109.289062 175.527344 109.828125 175.636719 110.371094 C 175.742188 110.917969 175.824219 111.464844 175.878906 112.019531 C 175.933594 112.570312 175.960938 113.125 175.960938 113.679688 C 175.960938 114.234375 175.933594 114.789062 175.878906 115.34375 C 175.824219 115.894531 175.742188 116.441406 175.636719 116.988281 C 175.527344 117.53125 175.390625 118.070312 175.230469 118.601562 C 175.070312 119.132812 174.882812 119.65625 174.671875 120.167969 C 174.457031 120.679688 174.222656 121.183594 173.960938 121.671875 C 173.699219 122.160156 173.414062 122.636719 173.105469 123.097656 C 172.796875 123.5625 172.464844 124.007812 172.113281 124.433594 C 171.761719 124.863281 171.386719 125.273438 170.996094 125.667969 C 170.601562 126.058594 170.191406 126.433594 169.761719 126.785156 C 169.332031 127.136719 168.886719 127.46875 168.425781 127.777344 C 167.964844 128.085938 167.488281 128.371094 167 128.632812 C 166.507812 128.890625 166.007812 129.128906 165.496094 129.34375 C 164.980469 129.554688 164.460938 129.742188 163.925781 129.902344 C 163.394531 130.0625 162.859375 130.199219 162.3125 130.304688 C 161.769531 130.414062 161.21875 130.496094 160.667969 130.550781 C 160.117188 130.601562 159.5625 130.628906 159.007812 130.628906 C 158.449219 130.628906 157.898438 130.601562 157.34375 130.546875 C 156.792969 130.492188 156.242188 130.410156 155.699219 130.304688 C 155.152344 130.195312 154.617188 130.058594 154.085938 129.898438 C 153.554688 129.738281 153.03125 129.550781 152.519531 129.335938 C 152.007812 129.125 151.503906 128.886719 151.015625 128.625 C 150.527344 128.363281 150.050781 128.078125 149.589844 127.769531 C 149.128906 127.460938 148.683594 127.128906 148.253906 126.777344 C 147.824219 126.425781 147.414062 126.050781 147.019531 125.660156 C 142.046875 120.683594 140.816406 113.359375 143.332031 107.230469 L 120.472656 84.367188 L 120.472656 144.523438 C 122.140625 145.351562 123.636719 146.417969 124.960938 147.730469 C 125.355469 148.121094 125.726562 148.535156 126.078125 148.960938 C 126.433594 149.390625 126.761719 149.835938 127.070312 150.296875 C 127.378906 150.757812 127.664062 151.234375 127.925781 151.726562 C 128.1875 152.214844 128.425781 152.714844 128.636719 153.226562 C 128.847656 153.742188 129.035156 154.261719 129.195312 154.792969 C 129.359375 155.324219 129.492188 155.863281 129.601562 156.40625 C 129.707031 156.953125 129.789062 157.5 129.84375 158.050781 C 129.898438 158.605469 129.925781 159.15625 129.925781 159.714844 C 129.925781 160.269531 129.898438 160.820312 129.84375 161.375 C 129.789062 161.925781 129.707031 162.472656 129.601562 163.019531 C 129.492188 163.5625 129.359375 164.101562 129.195312 164.632812 C 129.035156 165.164062 128.847656 165.683594 128.636719 166.199219 C 128.425781 166.710938 128.1875 167.210938 127.925781 167.703125 C 127.664062 168.191406 127.378906 168.667969 127.070312 169.128906 C 126.761719 169.589844 126.433594 170.035156 126.078125 170.464844 C 125.726562 170.890625 125.355469 171.304688 124.960938 171.695312 C 124.570312 172.089844 124.160156 172.460938 123.730469 172.8125 C 123.300781 173.164062 122.855469 173.496094 122.394531 173.804688 C 121.933594 174.109375 121.457031 174.394531 120.96875 174.65625 C 120.480469 174.917969 119.976562 175.15625 119.464844 175.367188 C 118.953125 175.582031 118.429688 175.769531 117.898438 175.929688 C 117.367188 176.089844 116.832031 176.226562 116.285156 176.332031 C 115.742188 176.441406 115.195312 176.523438 114.640625 176.578125 C 114.089844 176.632812 113.535156 176.660156 112.980469 176.660156 C 112.425781 176.660156 111.871094 176.632812 111.320312 176.578125 C 110.765625 176.523438 110.21875 176.441406 109.675781 176.332031 C 109.128906 176.226562 108.59375 176.089844 108.0625 175.929688 C 107.53125 175.769531 107.007812 175.582031 106.496094 175.367188 C 105.984375 175.15625 105.480469 174.917969 104.992188 174.65625 C 104.503906 174.394531 104.027344 174.109375 103.566406 173.804688 C 103.105469 173.496094 102.660156 173.164062 102.230469 172.8125 C 101.800781 172.460938 101.390625 172.089844 100.996094 171.695312 C 100.605469 171.304688 100.230469 170.894531 99.878906 170.464844 C 99.527344 170.035156 99.195312 169.589844 98.886719 169.128906 C 98.578125 168.667969 98.292969 168.191406 98.03125 167.703125 C 97.769531 167.214844 97.53125 166.710938 97.320312 166.199219 C 97.105469 165.6875 96.917969 165.164062 96.757812 164.632812 C 96.597656 164.101562 96.460938 163.5625 96.355469 163.019531 C 96.246094 162.476562 96.164062 161.925781 96.109375 161.375 C 96.054688 160.820312 96.027344 160.269531 96.027344 159.714844 C 96.027344 159.15625 96.054688 158.605469 96.109375 158.050781 C 96.164062 157.5 96.246094 156.949219 96.355469 156.40625 C 96.460938 155.863281 96.597656 155.324219 96.757812 154.792969 C 96.917969 154.261719 97.105469 153.738281 97.320312 153.226562 C 97.53125 152.714844 97.769531 152.210938 98.03125 151.722656 C 98.292969 151.234375 98.578125 150.757812 98.886719 150.296875 C 99.195312 149.835938 99.527344 149.390625 99.878906 148.960938 C 100.230469 148.53125 100.605469 148.121094 100.996094 147.730469 C 102.636719 146.097656 104.453125 144.863281 106.546875 144.035156 L 106.546875 83.320312 C 104.527344 82.488281 102.636719 81.265625 100.996094 79.621094 C 100.40625 79.03125 99.859375 78.398438 99.363281 77.726562 C 98.863281 77.054688 98.417969 76.351562 98.027344 75.613281 C 97.632812 74.875 97.292969 74.113281 97.015625 73.328125 C 96.734375 72.539062 96.511719 71.734375 96.351562 70.914062 C 96.1875 70.09375 96.089844 69.265625 96.050781 68.429688 C 96.011719 67.59375 96.035156 66.761719 96.117188 65.929688 C 96.203125 65.097656 96.347656 64.277344 96.554688 63.46875 C 96.761719 62.65625 97.027344 61.867188 97.347656 61.09375 L 72.265625 36.023438 L 6.0625 102.15625 C 5.402344 102.816406 4.808594 103.535156 4.289062 104.3125 C 3.769531 105.09375 3.332031 105.914062 2.972656 106.777344 C 2.613281 107.640625 2.34375 108.53125 2.160156 109.449219 C 1.980469 110.367188 1.886719 111.292969 1.886719 112.226562 C 1.886719 113.164062 1.980469 114.089844 2.160156 115.007812 C 2.34375 115.925781 2.613281 116.816406 2.972656 117.679688 C 3.332031 118.542969 3.769531 119.363281 4.289062 120.140625 C 4.808594 120.917969 5.402344 121.640625 6.0625 122.300781 L 102.613281 218.839844 C 103.277344 219.5 103.996094 220.089844 104.773438 220.609375 C 105.550781 221.128906 106.371094 221.566406 107.234375 221.925781 C 108.097656 222.285156 108.988281 222.554688 109.90625 222.734375 C 110.820312 222.917969 111.75 223.011719 112.683594 223.011719 C 113.617188 223.011719 114.542969 222.917969 115.460938 222.734375 C 116.378906 222.554688 117.269531 222.285156 118.132812 221.925781 C 118.996094 221.566406 119.816406 221.128906 120.59375 220.609375 C 121.371094 220.089844 122.089844 219.5 122.75 218.839844 L 218.855469 122.886719 C 219.515625 122.226562 220.105469 121.507812 220.625 120.730469 C 221.148438 119.953125 221.585938 119.132812 221.945312 118.265625 C 222.300781 117.402344 222.574219 116.511719 222.753906 115.59375 C 222.9375 114.675781 223.03125 113.75 223.03125 112.816406 C 223.03125 111.878906 222.9375 110.953125 222.753906 110.035156 C 222.574219 109.117188 222.300781 108.226562 221.945312 107.363281 C 221.585938 106.5 221.148438 105.679688 220.625 104.902344 C 220.105469 104.125 219.515625 103.40625 218.855469 102.742188 " fill-opacity="1" fill-rule="nonzero"/></g></svg>