<svg xmlns="http://www.w3.org/2000/svg" xmlns:xlink="http://www.w3.org/1999/xlink" width="300" zoomAndPan="magnify" viewBox="0 0 224.87999 225" height="300" preserveAspectRatio="xMidYMid meet" version="1.0"><defs><clipPath id="039088f723"><path d="M 48 169 L 179 169 L 179 215.09375 L 48 215.09375 Z M 48 169 " clip-rule="nonzero"/></clipPath><clipPath id="d9a74955f8"><path d="M 76 185 L 152 185 L 152 215.09375 L 76 215.09375 Z M 76 185 " clip-rule="nonzero"/></clipPath><clipPath id="fb95ebbf9a"><path d="M 130.96875 191.574219 C 131.414062 190.140625 131.488281 187.929688 127.042969 188.933594 C 127.042969 188.933594 114.890625 190.660156 114.3125 204.761719 L 114.035156 231.785156 L 111.117188 231.785156 L 110.839844 204.761719 C 110.261719 190.660156 98.113281 188.933594 98.113281 188.933594 C 93.679688 187.929688 93.738281 190.140625 94.179688 191.574219 C 89.824219 184.1875 78.152344 185.144531 78.152344 185.144531 C 74.101562 186.582031 77.863281 189.171875 77.863281 189.171875 C 84.226562 191.472656 84.808594 198.382812 84.808594 198.382812 L 84.808594 217.902344 L 85.480469 232.992188 C 86.925781 239.714844 90.492188 243.6875 93.988281 246.027344 L 131.234375 245.984375 C 135.742188 242.941406 140.347656 237.175781 140.347656 226.289062 L 140.347656 198.382812 C 140.347656 198.382812 140.925781 191.472656 147.292969 189.171875 C 153.660156 186.871094 151.050781 186.582031 147.003906 185.144531 C 147.003906 185.144531 146.507812 185.105469 145.6875 185.101562 C 142.511719 185.101562 134.4375 185.707031 130.972656 191.574219 M 95.796875 219.394531 L 95.796875 198.097656 C 95.796875 196.015625 95.429688 194.265625 94.796875 192.796875 C 98.988281 196.046875 99.269531 204.1875 99.269531 204.1875 L 99.269531 230.773438 C 95.097656 227.835938 95.796875 219.390625 95.796875 219.390625 M 125.890625 204.183594 C 125.890625 204.183594 126.171875 196.039062 130.359375 192.792969 C 129.730469 194.261719 129.363281 196.011719 129.363281 198.09375 L 129.363281 219.390625 C 129.363281 219.390625 130.058594 227.242188 125.890625 230.472656 Z M 125.890625 204.183594 " clip-rule="nonzero"/></clipPath><clipPath id="bc0350ed54"><path d="M 0 12 L 224.761719 12 L 224.761719 191 L 0 191 Z M 0 12 " clip-rule="nonzero"/></clipPath></defs><g clip-path="url(#039088f723)"><path fill="#a0dcf2" d="M 178.585938 192.429688 C 178.585938 204.949219 149.441406 215.097656 113.488281 215.097656 C 77.53125 215.097656 48.386719 204.949219 48.386719 192.429688 C 48.386719 179.910156 77.53125 169.757812 113.488281 169.757812 C 149.441406 169.757812 178.585938 179.921875 178.585938 192.429688 " fill-opacity="1" fill-rule="nonzero"/></g><g clip-path="url(#d9a74955f8)"><g clip-path="url(#fb95ebbf9a)"><path fill="#82bde7" d="M 178.585938 192.429688 C 178.585938 204.949219 149.441406 215.097656 113.488281 215.097656 C 77.53125 215.097656 48.386719 204.949219 48.386719 192.429688 C 48.386719 179.910156 77.53125 169.757812 113.488281 169.757812 C 149.441406 169.757812 178.585938 179.921875 178.585938 192.429688 " fill-opacity="1" fill-rule="nonzero"/></g></g><path fill="#a0dcf2" d="M 39.128906 125.773438 L 37.25 132.285156 C 37.25 132.285156 36.757812 134.640625 38.988281 135.058594 C 41.316406 135.011719 41.125 132.84375 40.964844 132.140625 Z M 39.128906 125.773438 " fill-opacity="1" fill-rule="nonzero"/><g clip-path="url(#bc0350ed54)"><path fill="#292929" d="M 228.375 98.453125 L 228.546875 97.609375 C 209.449219 93.808594 189.851562 93.769531 177.984375 94.261719 C 179.929688 87.277344 180.515625 79.242188 180.515625 70.285156 C 180.515625 57.433594 175.664062 47.15625 167.789062 39.332031 C 169.164062 34.914062 171.003906 25.09375 165.953125 12.527344 C 165.953125 12.527344 157.027344 9.710938 136.886719 23.132812 C 128.988281 21.171875 120.585938 20.199219 112.171875 20.199219 C 102.910156 20.199219 93.554688 21.375 84.828125 23.753906 C 64.027344 9.632812 54.84375 12.527344 54.84375 12.527344 C 48.847656 27.453125 52.554688 38.480469 53.679688 41.222656 C 46.632812 48.789062 42.332031 58.445312 42.332031 70.28125 C 42.332031 79.222656 43.359375 87.238281 45.855469 94.207031 C 33.898438 93.777344 15.011719 93.941406 -3.414062 97.605469 L -3.246094 98.453125 C 15.28125 94.765625 34.28125 94.636719 46.15625 95.085938 C 46.707031 96.527344 47.320312 97.914062 48.003906 99.28125 C 36.253906 99.65625 16.1875 101.144531 -3.042969 106.542969 L -2.808594 107.375 C 16.574219 101.933594 36.816406 100.484375 48.453125 100.128906 C 55.476562 113.152344 69.320312 121.5625 93.949219 124.191406 C 90.453125 126.527344 86.886719 130.5 85.441406 137.226562 C 80.675781 139.492188 65.597656 145.027344 56.550781 129.542969 C 56.550781 129.542969 51.484375 120.332031 41.792969 119.609375 C 41.792969 119.609375 32.390625 119.480469 41.140625 125.441406 C 41.140625 125.441406 47.433594 128.390625 51.773438 139.464844 C 51.773438 139.464844 57.4375 158.375 84.765625 152.308594 L 84.765625 171.839844 C 84.765625 171.839844 84.1875 178.75 77.824219 181.050781 C 71.457031 183.351562 74.0625 183.640625 78.113281 185.078125 C 78.113281 185.078125 95.757812 186.519531 95.757812 172.125 L 95.757812 150.828125 C 95.757812 150.828125 95.058594 142.382812 99.226562 139.445312 L 99.226562 174.460938 C 99.226562 174.460938 98.941406 182.808594 94.601562 185.972656 C 90.261719 189.140625 91.707031 191.152344 98.070312 189.714844 C 98.070312 189.714844 110.21875 187.988281 110.800781 173.886719 L 111.074219 138.484375 L 113.996094 138.484375 L 114.273438 173.886719 C 114.851562 187.988281 127 189.714844 127 189.714844 C 133.363281 191.152344 130.46875 185.972656 130.46875 185.972656 C 126.132812 182.808594 125.84375 174.460938 125.84375 174.460938 L 125.84375 139.777344 C 130.011719 142.996094 129.3125 150.859375 129.3125 150.859375 L 129.3125 172.160156 C 129.3125 186.550781 146.957031 185.109375 146.957031 185.109375 C 151.007812 183.671875 147.25 181.082031 147.25 181.082031 C 140.882812 178.765625 140.304688 171.871094 140.304688 171.871094 L 140.304688 143.953125 C 140.304688 133.066406 135.699219 127.300781 131.191406 124.257812 C 157.445312 121.664062 170.058594 113.226562 175.871094 100.117188 C 187.375 100.429688 208.078125 101.824219 227.882812 107.386719 L 228.117188 106.554688 C 208.425781 101.03125 187.859375 99.601562 176.238281 99.261719 C 176.789062 97.9375 177.269531 96.5625 177.695312 95.144531 C 189.46875 94.628906 209.15625 94.648438 228.328125 98.464844 " fill-opacity="1" fill-rule="nonzero"/></g><path fill="#f5cdb5" d="M 154.84375 69.671875 C 160.5 74.769531 163.808594 80.929688 163.808594 87.5625 C 163.808594 118.539062 140.601562 119.378906 111.972656 119.378906 C 83.34375 119.378906 60.128906 115.109375 60.128906 87.585938 C 60.128906 80.996094 63.390625 74.875 68.980469 69.796875 C 78.296875 61.332031 94.074219 65.8125 111.964844 65.8125 C 129.789062 65.8125 145.503906 61.289062 154.835938 69.695312 " fill-opacity="1" fill-rule="nonzero"/><path fill="#ffffff" d="M 94.730469 89.152344 C 94.730469 97.683594 89.902344 104.601562 83.945312 104.601562 C 77.988281 104.601562 73.15625 97.683594 73.15625 89.152344 C 73.15625 80.621094 77.988281 73.707031 83.945312 73.707031 C 89.902344 73.707031 94.730469 80.621094 94.730469 89.152344 " fill-opacity="1" fill-rule="nonzero"/><path fill="#b1645a" d="M 91.269531 89.34375 C 91.269531 95.03125 88.035156 99.640625 84.078125 99.640625 C 80.121094 99.640625 76.890625 95.03125 76.890625 89.34375 C 76.890625 83.65625 80.105469 79.042969 84.078125 79.042969 C 88.050781 79.042969 91.269531 83.65625 91.269531 89.34375 " fill-opacity="1" fill-rule="nonzero"/><path fill="#ffffff" d="M 152.59375 89.152344 C 152.59375 97.683594 147.765625 104.601562 141.804688 104.601562 C 135.847656 104.601562 131.019531 97.683594 131.019531 89.152344 C 131.019531 80.621094 135.851562 73.707031 141.804688 73.707031 C 147.761719 73.707031 152.59375 80.621094 152.59375 89.152344 " fill-opacity="1" fill-rule="nonzero"/><path fill="#b1645a" d="M 149.140625 89.34375 C 149.140625 95.03125 145.90625 99.640625 141.949219 99.640625 C 137.992188 99.640625 134.761719 95.03125 134.761719 89.34375 C 134.761719 83.65625 137.992188 79.042969 141.949219 79.042969 C 145.90625 79.042969 149.140625 83.65625 149.140625 89.34375 M 114.824219 102.855469 C 114.824219 104.335938 113.617188 105.539062 112.125 105.539062 C 110.636719 105.539062 109.429688 104.335938 109.429688 102.855469 C 109.429688 101.371094 110.636719 100.171875 112.125 100.171875 C 113.617188 100.171875 114.824219 101.371094 114.824219 102.855469 M 105.84375 109.644531 C 105.761719 109.417969 105.773438 109.199219 105.875 108.980469 C 105.980469 108.765625 106.144531 108.621094 106.371094 108.539062 C 106.597656 108.460938 106.816406 108.472656 107.035156 108.574219 C 107.25 108.679688 107.398438 108.84375 107.476562 109.066406 C 108.171875 111.015625 110.03125 112.328125 112.105469 112.328125 C 114.179688 112.328125 116.035156 111.015625 116.730469 109.066406 C 116.8125 108.84375 116.957031 108.679688 117.175781 108.578125 C 117.390625 108.472656 117.613281 108.460938 117.835938 108.542969 C 118.0625 108.621094 118.226562 108.769531 118.332031 108.984375 C 118.433594 109.199219 118.445312 109.417969 118.367188 109.644531 C 118.132812 110.28125 117.808594 110.875 117.390625 111.414062 C 116.976562 111.953125 116.488281 112.421875 115.929688 112.8125 C 115.367188 113.203125 114.761719 113.5 114.109375 113.703125 C 113.457031 113.910156 112.789062 114.011719 112.105469 114.011719 C 111.421875 114.011719 110.75 113.910156 110.097656 113.703125 C 109.445312 113.5 108.839844 113.203125 108.28125 112.8125 C 107.71875 112.421875 107.230469 111.953125 106.816406 111.414062 C 106.398438 110.875 106.074219 110.28125 105.84375 109.644531 " fill-opacity="1" fill-rule="nonzero"/><path fill="#c5e6da" d="M 46.03125 121.9375 C 46.03125 122.652344 45.191406 123.230469 44.152344 123.230469 C 43.113281 123.230469 42.269531 122.652344 42.269531 121.9375 C 42.269531 121.222656 43.113281 120.640625 44.152344 120.640625 C 45.191406 120.640625 46.03125 121.21875 46.03125 121.9375 M 51.242188 124.8125 C 51.242188 125.53125 50.398438 126.109375 49.359375 126.109375 C 48.320312 126.109375 47.480469 125.53125 47.480469 124.8125 C 47.480469 124.09375 48.320312 123.519531 49.359375 123.519531 C 50.398438 123.519531 51.242188 124.097656 51.242188 124.8125 M 54.425781 128.542969 C 54.425781 129.257812 53.585938 129.839844 52.542969 129.839844 C 51.503906 129.839844 50.664062 129.261719 50.664062 128.542969 C 50.664062 127.828125 51.507812 127.246094 52.542969 127.246094 C 53.582031 127.246094 54.425781 127.828125 54.425781 128.542969 M 57.316406 132.863281 C 57.316406 133.582031 56.476562 134.160156 55.4375 134.160156 C 54.398438 134.160156 53.554688 133.582031 53.554688 132.863281 C 53.554688 132.144531 54.394531 131.566406 55.4375 131.566406 C 56.476562 131.566406 57.316406 132.144531 57.316406 132.863281 M 60.5 136.910156 C 60.5 137.621094 59.660156 138.203125 58.621094 138.203125 C 57.582031 138.203125 56.738281 137.625 56.738281 136.910156 C 56.738281 136.191406 57.582031 135.613281 58.621094 135.613281 C 59.660156 135.613281 60.5 136.191406 60.5 136.910156 M 64.839844 140.359375 C 64.839844 141.078125 64 141.65625 62.960938 141.65625 C 61.917969 141.65625 61.082031 141.078125 61.082031 140.359375 C 61.082031 139.644531 61.921875 139.066406 62.960938 139.066406 C 64 139.066406 64.839844 139.644531 64.839844 140.359375 " fill-opacity="1" fill-rule="nonzero"/><path fill="#c5e6da" d="M 70.917969 142.660156 C 70.917969 143.375 70.078125 143.953125 69.035156 143.953125 C 67.996094 143.953125 67.15625 143.375 67.15625 142.660156 C 67.15625 141.945312 67.996094 141.363281 69.035156 141.363281 C 70.078125 141.363281 70.917969 141.941406 70.917969 142.660156 " fill-opacity="1" fill-rule="nonzero"/><path fill="#c5e6da" d="M 76.964844 142.660156 C 76.964844 143.375 76.125 143.953125 75.082031 143.953125 C 74.042969 143.953125 73.203125 143.375 73.203125 142.660156 C 73.203125 141.945312 74.042969 141.363281 75.082031 141.363281 C 76.125 141.363281 76.964844 141.941406 76.964844 142.660156 " fill-opacity="1" fill-rule="nonzero"/><path fill="#c5e6da" d="M 83.101562 141.65625 C 83.101562 142.375 82.261719 142.953125 81.222656 142.953125 C 80.179688 142.953125 79.339844 142.375 79.339844 141.65625 C 79.339844 140.9375 80.179688 140.359375 81.222656 140.359375 C 82.261719 140.359375 83.101562 140.9375 83.101562 141.65625 " fill-opacity="1" fill-rule="nonzero"/></svg>