<svg xmlns="http://www.w3.org/2000/svg" xmlns:xlink="http://www.w3.org/1999/xlink" width="300" zoomAndPan="magnify" viewBox="0 0 224.87999 225" height="300" preserveAspectRatio="xMidYMid meet" version="1.0"><defs><clipPath id="846762d2ab"><path d="M 16.210938 3 L 208.859375 3 L 208.859375 222 L 16.210938 222 Z M 16.210938 3 " clip-rule="nonzero"/></clipPath></defs><g clip-path="url(#846762d2ab)"><path fill="#e44d26" d="M 33.699219 199.890625 L 16.15625 3.3125 L 208.914062 3.3125 L 191.355469 199.863281 L 112.414062 221.71875 Z M 33.699219 199.890625 " fill-opacity="1" fill-rule="nonzero"/></g><path fill="#f16529" d="M 176.320312 187.347656 L 191.328125 19.386719 L 112.535156 19.386719 L 112.535156 205.019531 Z M 176.320312 187.347656 " fill-opacity="1" fill-rule="nonzero"/><path fill="#ebebeb" d="M 112.453125 43.492188 L 52.023438 43.492188 L 58.53125 116.402344 L 112.535156 116.402344 L 112.535156 92.296875 L 80.605469 92.296875 L 78.398438 67.605469 L 112.535156 67.605469 L 112.535156 43.492188 Z M 112.535156 154.832031 L 112.433594 154.859375 L 85.558594 147.609375 L 83.851562 128.382812 L 59.613281 128.382812 L 62.992188 166.234375 L 112.425781 179.886719 L 112.535156 179.851562 Z M 112.535156 154.832031 " fill-opacity="1" fill-rule="nonzero"/><path fill="#ffffff" d="M 112.453125 116.402344 L 142.171875 116.402344 L 139.4375 147.664062 L 112.519531 154.917969 L 112.519531 180.003906 L 161.996094 166.304688 L 168.621094 92.28125 L 112.535156 92.28125 Z M 172.324219 49.964844 L 172.898438 43.492188 L 112.441406 43.492188 L 112.441406 67.601562 L 170.726562 67.601562 L 171.203125 62.179688 Z M 172.324219 49.964844 " fill-opacity="1" fill-rule="nonzero"/></svg>