<svg xmlns="http://www.w3.org/2000/svg" xmlns:xlink="http://www.w3.org/1999/xlink" width="300" zoomAndPan="magnify" viewBox="0 0 224.87999 225" height="300" preserveAspectRatio="xMidYMid meet" version="1.0"><defs><clipPath id="75599667d9"><path d="M 5.148438 10.355469 L 219.53125 10.355469 L 219.53125 224.738281 L 5.148438 224.738281 Z M 5.148438 10.355469 " clip-rule="nonzero"/></clipPath><clipPath id="67b30f6a8a"><path d="M 5.148438 10.355469 L 113 10.355469 L 113 224.738281 L 5.148438 224.738281 Z M 5.148438 10.355469 " clip-rule="nonzero"/></clipPath></defs><g clip-path="url(#75599667d9)"><path fill="#ffc44d" d="M 13.125 9.855469 C 10.980469 9.855469 8.9375 10.777344 7.519531 12.382812 C 6.097656 13.992188 5.4375 16.132812 5.703125 18.261719 L 25.644531 177.804688 C 25.957031 180.285156 27.484375 182.449219 29.722656 183.566406 L 109.492188 223.449219 C 111.597656 224.503906 114.078125 224.503906 116.183594 223.449219 L 195.953125 183.566406 C 198.191406 182.449219 199.71875 180.285156 200.03125 177.804688 L 219.972656 18.261719 C 220.238281 16.132812 219.578125 13.992188 218.160156 12.382812 C 216.738281 10.777344 214.699219 9.855469 212.550781 9.855469 Z M 13.125 9.855469 " fill-opacity="1" fill-rule="nonzero"/></g><g clip-path="url(#67b30f6a8a)"><path fill="#e5b045" d="M 112.839844 9.855469 L 112.839844 224.242188 C 111.691406 224.242188 110.546875 223.976562 109.492188 223.449219 L 29.722656 183.566406 C 27.484375 182.449219 25.957031 180.285156 25.644531 177.804688 L 5.703125 18.261719 C 5.4375 16.132812 6.097656 13.992188 7.519531 12.382812 C 8.9375 10.777344 10.980469 9.855469 13.125 9.855469 Z M 112.839844 9.855469 " fill-opacity="1" fill-rule="evenodd"/></g><path fill="#cfd8dc" d="M 97.882812 39.769531 C 102.011719 39.769531 105.359375 43.117188 105.359375 47.25 L 105.359375 176.875 C 105.359375 179.542969 103.941406 182.007812 101.636719 183.34375 C 99.328125 184.683594 96.484375 184.691406 94.171875 183.371094 L 59.273438 163.425781 C 55.6875 161.378906 54.441406 156.808594 56.488281 153.222656 C 58.539062 149.636719 63.105469 148.390625 66.691406 150.441406 L 90.402344 163.988281 L 90.402344 47.25 C 90.402344 43.117188 93.753906 39.769531 97.882812 39.769531 Z M 97.882812 39.769531 " fill-opacity="1" fill-rule="evenodd"/><path fill="#eceff1" d="M 120.320312 47.25 C 120.320312 43.117188 123.667969 39.769531 127.796875 39.769531 L 177.65625 39.769531 C 181.785156 39.769531 185.132812 43.117188 185.132812 47.25 C 185.132812 51.378906 181.785156 54.726562 177.65625 54.726562 L 135.277344 54.726562 L 135.277344 102.738281 L 171.046875 94.789062 C 173.375 94.273438 175.816406 94.898438 177.609375 96.476562 C 179.402344 98.050781 180.332031 100.390625 180.117188 102.769531 L 175.128906 157.609375 C 174.894531 160.191406 173.34375 162.464844 171.027344 163.621094 L 131.140625 183.566406 C 127.449219 185.414062 122.957031 183.914062 121.109375 180.222656 C 119.261719 176.527344 120.757812 172.035156 124.453125 170.1875 L 160.613281 152.109375 L 164.292969 111.613281 L 129.417969 119.363281 C 127.207031 119.855469 124.886719 119.316406 123.117188 117.894531 C 121.347656 116.476562 120.320312 114.332031 120.320312 112.0625 Z M 120.320312 47.25 " fill-opacity="1" fill-rule="evenodd"/></svg>