<svg xmlns="http://www.w3.org/2000/svg" xmlns:xlink="http://www.w3.org/1999/xlink" width="50" zoomAndPan="magnify" viewBox="0 0 37.5 37.499999" height="50" preserveAspectRatio="xMidYMid meet" version="1.0"><defs><g/></defs><g fill="#ffffff" fill-opacity="1"><g transform="translate(4.878825, 10.68135)"><g><path d="M -0.457031 -0.957031 L -0.203125 -1.339844 L 0.917969 -1.394531 L 1.078125 -1.632812 L -0.0976562 -1.578125 C 0.0507812 -1.878906 0.0273438 -2.234375 -0.296875 -2.445312 C -0.585938 -2.636719 -0.972656 -2.605469 -1.277344 -2.148438 L -1.703125 -1.496094 L 0.171875 -0.261719 L 0.300781 -0.457031 Z M -0.636719 -1.078125 L -1.390625 -1.574219 L -1.097656 -2.011719 C -0.863281 -2.371094 -0.601562 -2.363281 -0.417969 -2.242188 C -0.230469 -2.117188 -0.125 -1.851562 -0.351562 -1.511719 Z M -0.636719 -1.078125 "/></g></g></g><g fill="#ffffff" fill-opacity="1"><g transform="translate(7.040191, 7.704657)"><g><path d="M 1.011719 -2.464844 C 0.578125 -2.9375 -0.117188 -2.976562 -0.589844 -2.542969 C -1.066406 -2.101562 -1.078125 -1.402344 -0.640625 -0.925781 C -0.207031 -0.457031 0.484375 -0.414062 0.957031 -0.847656 C 1.4375 -1.289062 1.449219 -1.992188 1.011719 -2.464844 Z M 0.839844 -2.289062 C 1.179688 -1.921875 1.195312 -1.367188 0.8125 -1.019531 C 0.429688 -0.664062 -0.128906 -0.726562 -0.472656 -1.101562 C -0.8125 -1.472656 -0.824219 -2.023438 -0.445312 -2.375 C -0.0625 -2.726562 0.5 -2.660156 0.839844 -2.289062 Z M 0.839844 -2.289062 "/></g></g></g><g fill="#ffffff" fill-opacity="1"><g transform="translate(10.272117, 5.052246)"><g><path d="M 0.8125 -0.425781 C 1.207031 -0.644531 1.300781 -1.039062 1.140625 -1.328125 C 1.066406 -1.457031 0.953125 -1.539062 0.820312 -1.582031 C 0.648438 -1.640625 0.429688 -1.621094 0.1875 -1.554688 C -0.148438 -1.464844 -0.328125 -1.496094 -0.425781 -1.675781 C -0.539062 -1.878906 -0.414062 -2.117188 -0.203125 -2.234375 C 0.0546875 -2.378906 0.261719 -2.296875 0.417969 -2.167969 L 0.539062 -2.363281 C 0.324219 -2.550781 0.0195312 -2.609375 -0.308594 -2.429688 C -0.632812 -2.25 -0.8125 -1.886719 -0.625 -1.550781 C -0.472656 -1.277344 -0.195312 -1.207031 0.265625 -1.332031 C 0.59375 -1.421875 0.824219 -1.398438 0.9375 -1.195312 C 1.050781 -0.988281 0.9375 -0.746094 0.707031 -0.617188 C 0.4375 -0.46875 0.214844 -0.542969 -0.00390625 -0.71875 L -0.132812 -0.527344 C 0.148438 -0.292969 0.46875 -0.234375 0.8125 -0.425781 Z M 0.8125 -0.425781 "/></g></g></g><g fill="#ffffff" fill-opacity="1"><g transform="translate(13.358269, 3.536895)"><g><path d="M 0.886719 -0.242188 C 1.316406 -0.375 1.492188 -0.738281 1.394531 -1.054688 C 1.351562 -1.195312 1.257812 -1.300781 1.136719 -1.371094 C 0.980469 -1.464844 0.761719 -1.492188 0.515625 -1.480469 C 0.164062 -1.464844 0 -1.53125 -0.0585938 -1.726562 C -0.128906 -1.953125 0.0429688 -2.15625 0.273438 -2.226562 C 0.558594 -2.3125 0.746094 -2.1875 0.871094 -2.03125 L 1.03125 -2.195312 C 0.855469 -2.421875 0.574219 -2.546875 0.214844 -2.4375 C -0.140625 -2.332031 -0.394531 -2.015625 -0.28125 -1.648438 C -0.191406 -1.347656 0.0664062 -1.21875 0.539062 -1.246094 C 0.882812 -1.265625 1.101562 -1.191406 1.171875 -0.96875 C 1.238281 -0.742188 1.074219 -0.53125 0.820312 -0.457031 C 0.527344 -0.367188 0.324219 -0.484375 0.148438 -0.703125 L -0.015625 -0.542969 C 0.203125 -0.253906 0.507812 -0.128906 0.886719 -0.242188 Z M 0.886719 -0.242188 "/></g></g></g><g fill="#ffffff" fill-opacity="1"><g transform="translate(16.724427, 2.727545)"><g/></g></g><g fill="#ffffff" fill-opacity="1"><g transform="translate(19.181582, 2.561846)"><g><path d="M 0.722656 -2.195312 L 0.488281 -2.214844 L 0.3125 0.0234375 L 0.546875 0.0429688 L 0.632812 -1.035156 L 0.648438 -1.035156 L 1.613281 0.128906 L 1.945312 0.15625 L 0.886719 -1.105469 L 2.070312 -2.089844 L 1.742188 -2.113281 L 0.660156 -1.207031 L 0.644531 -1.207031 Z M 0.722656 -2.195312 "/></g></g></g><g fill="#ffffff" fill-opacity="1"><g transform="translate(22.723438, 3.026688)"><g><path d="M 2.242188 -1.429688 L 2.304688 -1.636719 L 0.964844 -2.054688 L 0.296875 0.09375 L 1.652344 0.511719 L 1.71875 0.304688 L 0.589844 -0.046875 L 0.828125 -0.824219 L 1.851562 -0.507812 L 1.914062 -0.714844 L 0.894531 -1.03125 L 1.125 -1.777344 Z M 2.242188 -1.429688 "/></g></g></g><g fill="#ffffff" fill-opacity="1"><g transform="translate(26.043607, 4.243265)"><g><path d="M 2.5 -0.90625 L 2.609375 -1.09375 L 1.386719 -1.792969 L 0.269531 0.15625 L 1.5 0.859375 L 1.609375 0.671875 L 0.582031 0.0820312 L 0.988281 -0.625 L 1.917969 -0.0898438 L 2.027344 -0.28125 L 1.097656 -0.8125 L 1.484375 -1.488281 Z M 2.5 -0.90625 "/></g></g></g><g fill="#ffffff" fill-opacity="1"><g transform="translate(29.019511, 6.131795)"><g><path d="M 1.558594 1.472656 L 3.101562 -0.164062 L 2.929688 -0.320312 L 1.644531 1.042969 L 1.96875 -1.230469 L 1.769531 -1.417969 L 0.226562 0.214844 L 0.394531 0.375 L 1.710938 -1.015625 L 1.375 1.296875 Z M 1.558594 1.472656 "/></g></g></g><g fill="#ffffff" fill-opacity="1"><g transform="translate(31.821862, 9.083766)"><g><path d="M 2.636719 0.332031 L 2.820312 0.210938 L 2.050781 -0.964844 L 0.171875 0.261719 L 0.945312 1.449219 L 1.128906 1.328125 L 0.480469 0.339844 L 1.164062 -0.105469 L 1.75 0.789062 L 1.933594 0.671875 L 1.347656 -0.226562 L 2 -0.648438 Z M 2.636719 0.332031 "/></g></g></g><g fill="#ffffff" fill-opacity="1"><g transform="translate(1.56975, 13.691943)"><g><path d="M -0.25 0.882812 C -0.359375 1.320312 -0.136719 1.660156 0.183594 1.738281 C 0.328125 1.777344 0.464844 1.75 0.585938 1.683594 C 0.746094 1.597656 0.882812 1.425781 1 1.207031 C 1.167969 0.898438 1.3125 0.789062 1.507812 0.839844 C 1.738281 0.898438 1.824219 1.152344 1.765625 1.386719 C 1.691406 1.675781 1.488281 1.769531 1.289062 1.792969 L 1.347656 2.015625 C 1.632812 1.984375 1.886719 1.804688 1.976562 1.445312 C 2.070312 1.082031 1.929688 0.703125 1.554688 0.609375 C 1.253906 0.53125 1.007812 0.6875 0.785156 1.105469 C 0.628906 1.410156 0.453125 1.558594 0.222656 1.503906 C -0.00390625 1.445312 -0.101562 1.195312 -0.0351562 0.9375 C 0.0429688 0.640625 0.246094 0.527344 0.527344 0.488281 L 0.472656 0.265625 C 0.113281 0.308594 -0.152344 0.503906 -0.25 0.882812 Z M -0.25 0.882812 "/></g></g></g><g fill="#ffffff" fill-opacity="1"><g transform="translate(0.811148, 17.471132)"><g><path d="M 1.097656 2.425781 C 1.738281 2.4375 2.246094 1.960938 2.253906 1.316406 C 2.261719 0.667969 1.757812 0.179688 1.113281 0.167969 C 0.472656 0.160156 -0.03125 0.636719 -0.0390625 1.277344 C -0.046875 1.929688 0.453125 2.417969 1.097656 2.425781 Z M 1.085938 2.183594 C 0.585938 2.175781 0.175781 1.808594 0.179688 1.289062 C 0.1875 0.769531 0.617188 0.40625 1.125 0.414062 C 1.628906 0.421875 2.039062 0.789062 2.03125 1.304688 C 2.023438 1.828125 1.59375 2.191406 1.085938 2.183594 Z M 1.085938 2.183594 "/></g></g></g><g fill="#ffffff" fill-opacity="1"><g transform="translate(1.038501, 22.079526)"><g><path d="M 1.332031 1.34375 L 1.546875 1.296875 L 1.3125 0.261719 L 2.097656 0.0859375 L 2.355469 1.210938 L 2.570312 1.164062 L 2.261719 -0.195312 L 0.0703125 0.304688 L 0.121094 0.535156 L 1.097656 0.3125 Z M 1.332031 1.34375 "/></g></g></g><g fill="#ffffff" fill-opacity="1"><g transform="translate(2.105072, 25.780767)"><g><path d="M 2.179688 -0.128906 L 0.347656 0.734375 L 0.449219 0.949219 L 2.28125 0.0859375 L 2.597656 0.765625 L 2.800781 0.671875 L 2.058594 -0.902344 L 1.859375 -0.808594 Z M 2.179688 -0.128906 "/></g></g></g><g fill="#ffffff" fill-opacity="1"><g transform="translate(3.941519, 29.265066)"><g><path d="M 1.929688 -1.195312 L 1.769531 -1.386719 L 0.503906 0.597656 L 0.671875 0.796875 L 2.535156 0.015625 L 1.445312 1.71875 L 1.613281 1.917969 L 3.789062 1.011719 L 3.632812 0.832031 L 1.789062 1.613281 L 1.785156 1.609375 L 2.867188 -0.0820312 L 2.695312 -0.285156 L 0.855469 0.484375 L 0.851562 0.480469 Z M 1.929688 -1.195312 "/></g></g></g><g fill="#ffffff" fill-opacity="1"><g transform="translate(7.658408, 33.13603)"><g><path d="M 0.207031 0.140625 L 0.734375 -0.191406 L 1.746094 0.5 L 1.621094 1.113281 L 1.828125 1.253906 L 2.296875 -1.148438 L 2.078125 -1.300781 L 0.0078125 0.00390625 Z M 1.789062 0.269531 L 0.929688 -0.320312 L 2.046875 -1.023438 Z M 1.789062 0.269531 "/></g></g></g><g fill="#ffffff" fill-opacity="1"><g transform="translate(11.314183, 35.341902)"><g><path d="M 0.839844 -0.652344 L 1.265625 -0.488281 L 1.558594 0.601562 L 1.828125 0.703125 L 1.519531 -0.433594 C 1.847656 -0.351562 2.1875 -0.453125 2.324219 -0.8125 C 2.453125 -1.136719 2.335938 -1.507812 1.824219 -1.707031 L 1.097656 -1.984375 L 0.292969 0.113281 L 0.511719 0.195312 Z M 0.914062 -0.851562 L 1.238281 -1.695312 L 1.730469 -1.503906 C 2.128906 -1.351562 2.179688 -1.09375 2.101562 -0.890625 C 2.019531 -0.675781 1.78125 -0.519531 1.402344 -0.664062 Z M 0.914062 -0.851562 "/></g></g></g><g fill="#ffffff" fill-opacity="1"><g transform="translate(15.22276, 36.59094)"><g><path d="M 1.988281 -1.761719 L 2.019531 -1.980469 L 0.628906 -2.179688 L 0.308594 0.0429688 L 1.710938 0.246094 L 1.742188 0.03125 L 0.574219 -0.136719 L 0.6875 -0.945312 L 1.75 -0.792969 L 1.78125 -1.007812 L 0.71875 -1.160156 L 0.832031 -1.929688 Z M 1.988281 -1.761719 "/></g></g></g><g fill="#ffffff" fill-opacity="1"><g transform="translate(19.115896, 36.908357)"><g/></g></g><g fill="#ffffff" fill-opacity="1"><g transform="translate(21.910852, 36.646585)"><g><path d="M 1.207031 -2.371094 L 1.15625 -2.582031 L -0.210938 -2.257812 L 0.304688 -0.0703125 L 1.683594 -0.398438 L 1.632812 -0.609375 L 0.484375 -0.339844 L 0.296875 -1.132812 L 1.335938 -1.378906 L 1.285156 -1.589844 L 0.246094 -1.34375 L 0.0664062 -2.101562 Z M 1.207031 -2.371094 "/></g></g></g><g fill="#ffffff" fill-opacity="1"><g transform="translate(25.707409, 35.532933)"><g><path d="M 1.914062 -0.96875 L 0.898438 -2.972656 L 0.691406 -2.867188 L 1.539062 -1.191406 L -0.492188 -2.269531 L -0.734375 -2.144531 L 0.277344 -0.140625 L 0.488281 -0.246094 L -0.378906 -1.953125 L 1.6875 -0.855469 Z M 1.914062 -0.96875 "/></g></g></g><g fill="#ffffff" fill-opacity="1"><g transform="translate(29.61665, 33.26301)"><g><path d="M 0.667969 -2.703125 C 0.363281 -2.882812 -0.113281 -2.921875 -0.53125 -2.554688 C -1.015625 -2.128906 -1.046875 -1.429688 -0.621094 -0.941406 C -0.195312 -0.457031 0.464844 -0.375 0.972656 -0.824219 C 1.464844 -1.257812 1.460938 -1.859375 1.085938 -2.289062 L 1.03125 -2.351562 L 0.136719 -1.566406 L 0.28125 -1.402344 L 0.984375 -2.023438 C 1.246094 -1.683594 1.132812 -1.257812 0.832031 -0.996094 C 0.421875 -0.632812 -0.109375 -0.730469 -0.445312 -1.113281 C -0.804688 -1.519531 -0.75 -2.0625 -0.390625 -2.382812 C -0.0351562 -2.691406 0.324219 -2.628906 0.574219 -2.488281 Z M 0.667969 -2.703125 "/></g></g></g><g fill="#ffffff" fill-opacity="1"><g transform="translate(32.780506, 30.099722)"><g><path d="M 0.328125 -0.4375 L -1.464844 -1.789062 L -1.609375 -1.601562 L 0.1875 -0.25 Z M 0.328125 -0.4375 "/></g></g></g><g fill="#ffffff" fill-opacity="1"><g transform="translate(34.411779, 27.718153)"><g><path d="M 0.910156 -1.941406 L -1.121094 -2.894531 L -1.222656 -2.683594 L 0.476562 -1.886719 L -1.785156 -1.484375 L -1.902344 -1.238281 L 0.132812 -0.28125 L 0.230469 -0.492188 L -1.5 -1.308594 L 0.804688 -1.710938 Z M 0.910156 -1.941406 "/></g></g></g><g fill="#ffffff" fill-opacity="1"><g transform="translate(36.074045, 23.533742)"><g><path d="M -1.640625 -2.09375 L -1.855469 -2.136719 L -2.136719 -0.757812 L 0.0625 -0.304688 L 0.347656 -1.695312 L 0.136719 -1.738281 L -0.101562 -0.582031 L -0.902344 -0.746094 L -0.683594 -1.792969 L -0.898438 -1.835938 L -1.113281 -0.789062 L -1.875 -0.945312 Z M -1.640625 -2.09375 "/></g></g></g><g fill="#ffffff" fill-opacity="1"><g transform="translate(36.647613, 19.636916)"><g><path d="M -2.058594 -1.683594 L -2.273438 -1.679688 L -2.25 -0.273438 L -0.00390625 -0.3125 L -0.03125 -1.730469 L -0.246094 -1.726562 L -0.226562 -0.542969 L -1.042969 -0.53125 L -1.058594 -1.601562 L -1.277344 -1.597656 L -1.261719 -0.527344 L -2.039062 -0.511719 Z M -2.058594 -1.683594 "/></g></g></g><g fill="#ffffff" fill-opacity="1"><g transform="translate(36.361603, 15.704147)"><g><path d="M -1.015625 -0.316406 L -1.125 -0.761719 L -0.398438 -1.621094 L -0.46875 -1.898438 L -1.222656 -1 C -1.347656 -1.3125 -1.621094 -1.535156 -1.996094 -1.445312 C -2.335938 -1.359375 -2.574219 -1.054688 -2.441406 -0.519531 L -2.257812 0.234375 L -0.0742188 -0.304688 L -0.132812 -0.53125 Z M -1.222656 -0.261719 L -2.097656 -0.046875 L -2.222656 -0.558594 C -2.328125 -0.976562 -2.144531 -1.160156 -1.929688 -1.214844 C -1.710938 -1.269531 -1.445312 -1.164062 -1.347656 -0.769531 Z M -1.222656 -0.261719 "/></g></g></g><g fill="#ffffff" fill-opacity="1"><g transform="translate(22.236507, 22.8588)"><g><path d="M 2.375 -4.71875 L 2.53125 -4.9375 L 6.046875 -8.609375 L 7.53125 -8.609375 L 3.984375 -4.921875 L 7.734375 0 L 6.28125 0 L 3.125 -4.171875 L 2.40625 -3.484375 L 2.421875 0 L 1.234375 0 L 1.234375 -8.609375 L 2.421875 -8.609375 L 2.421875 -5.140625 Z M 2.375 -4.71875 "/></g></g></g><g fill="#ffffff" fill-opacity="1"><g transform="translate(7.759824, 22.8588)"><g><path d="M 5.984375 0 L 3.953125 -3.171875 C 3.890625 -3.171875 3.796875 -3.171875 3.671875 -3.171875 L 2.390625 -3.171875 L 2.390625 0 L 1.234375 0 L 1.234375 -8.609375 L 3.53125 -8.609375 C 4.125 -8.609375 4.648438 -8.503906 5.109375 -8.296875 C 5.566406 -8.085938 5.925781 -7.78125 6.1875 -7.375 C 6.445312 -6.976562 6.578125 -6.5 6.578125 -5.9375 C 6.578125 -5.40625 6.457031 -4.914062 6.21875 -4.46875 C 5.988281 -4.03125 5.632812 -3.695312 5.15625 -3.46875 L 7.328125 0 Z M 3.640625 -4.28125 C 4.265625 -4.28125 4.710938 -4.441406 4.984375 -4.765625 C 5.253906 -5.097656 5.390625 -5.472656 5.390625 -5.890625 C 5.390625 -6.148438 5.332031 -6.398438 5.21875 -6.640625 C 5.101562 -6.890625 4.921875 -7.09375 4.671875 -7.25 C 4.421875 -7.414062 4.109375 -7.5 3.734375 -7.5 L 2.390625 -7.5 L 2.390625 -4.28125 Z M 3.640625 -4.28125 "/></g></g></g><path stroke-linecap="butt" transform="matrix(0.00000000000000001, -0.162229, 0.162423, 0.00000000000000001, 18.786859, 28.346228)" fill="none" stroke-linejoin="miter" d="M -0.00880383 0.999613 L 118.144665 0.999613 " stroke="#ffffff" stroke-width="2" stroke-opacity="1" stroke-miterlimit="4"/></svg>