<svg xmlns="http://www.w3.org/2000/svg" xmlns:xlink="http://www.w3.org/1999/xlink" width="300" zoomAndPan="magnify" viewBox="0 0 224.87999 225" height="300" preserveAspectRatio="xMidYMid meet" version="1.0"><defs><clipPath id="2af0950b4d"><path d="M 1.582031 30 L 80 30 L 80 129 L 1.582031 129 Z M 1.582031 30 " clip-rule="nonzero"/></clipPath><clipPath id="939a2dda2b"><path d="M 1.582031 22.65625 L 159 22.65625 L 159 75 L 1.582031 75 Z M 1.582031 22.65625 " clip-rule="nonzero"/></clipPath><clipPath id="8595deb48f"><path d="M 67 142 L 145 142 L 145 202.5625 L 67 202.5625 Z M 67 142 " clip-rule="nonzero"/></clipPath><clipPath id="419e338d49"><path d="M 144 97 L 223.460938 97 L 223.460938 202.5625 L 144 202.5625 Z M 144 97 " clip-rule="nonzero"/></clipPath><clipPath id="7769140a0f"><path d="M 197 89 L 223.460938 89 L 223.460938 105 L 197 105 Z M 197 89 " clip-rule="nonzero"/></clipPath><clipPath id="1c9019d520"><path d="M 210 66 L 223.460938 66 L 223.460938 90 L 210 90 Z M 210 66 " clip-rule="nonzero"/></clipPath><clipPath id="9a676babb9"><path d="M 197 59 L 223.460938 59 L 223.460938 75 L 197 75 Z M 197 59 " clip-rule="nonzero"/></clipPath></defs><path fill="#949494" d="M 14.761719 52.898438 L 14.761719 128.933594 L 27.84375 121.574219 L 27.84375 60.257812 Z M 14.761719 52.898438 " fill-opacity="1" fill-rule="nonzero"/><g clip-path="url(#2af0950b4d)"><path fill="#efefef" d="M 1.679688 121.574219 L 1.679688 30.007812 L 79.355469 74.15625 L 79.355469 89.691406 L 14.761719 52.898438 L 14.761719 128.933594 Z M 1.679688 121.574219 " fill-opacity="1" fill-rule="nonzero"/></g><path fill="#949494" d="M 158.667969 30.007812 L 158.667969 121.574219 L 106.34375 151.003906 L 93.261719 142.832031 L 145.585938 113.398438 L 145.585938 52.082031 L 79.355469 89.6875 L 79.355469 74.15625 L 158.667969 30.003906 Z M 158.667969 30.007812 " fill-opacity="1" fill-rule="nonzero"/><g clip-path="url(#939a2dda2b)"><path fill="#d6d6d6" d="M 145.585938 22.648438 L 80.175781 59.4375 L 14.761719 22.648438 L 1.679688 30.007812 L 79.355469 74.15625 L 158.667969 30.007812 Z M 145.585938 22.648438 " fill-opacity="1" fill-rule="nonzero"/></g><path fill="#efefef" d="M 132.503906 59.4375 L 132.503906 106.042969 L 145.585938 113.402344 L 145.585938 52.082031 Z M 132.503906 59.4375 " fill-opacity="1" fill-rule="nonzero"/><path fill="#d6d6d6" d="M 67.09375 142.832031 L 132.503906 106.042969 L 145.585938 113.402344 L 93.261719 142.832031 L 144.769531 172.261719 L 197.105469 142.832031 L 210.179688 150.1875 L 144.769531 186.976562 Z M 67.09375 142.832031 " fill-opacity="1" fill-rule="nonzero"/><g clip-path="url(#8595deb48f)"><path fill="#efefef" d="M 67.09375 142.832031 L 67.09375 158.363281 L 144.769531 202.519531 L 144.769531 186.976562 Z M 67.09375 142.832031 " fill-opacity="1" fill-rule="nonzero"/></g><path fill="#efefef" d="M 210.179688 150.1875 L 210.179688 104.40625 L 197.105469 97.046875 L 197.105469 142.832031 Z M 210.179688 150.1875 " fill-opacity="1" fill-rule="nonzero"/><g clip-path="url(#419e338d49)"><path fill="#949494" d="M 144.769531 186.976562 L 210.179688 150.1875 L 210.179688 104.40625 L 223.261719 97.046875 L 223.261719 158.363281 L 144.769531 202.519531 Z M 144.769531 186.976562 " fill-opacity="1" fill-rule="nonzero"/></g><g clip-path="url(#7769140a0f)"><path fill="#d6d6d6" d="M 223.261719 97.046875 L 210.179688 104.40625 L 197.105469 97.046875 L 210.179688 89.691406 Z M 223.261719 97.046875 " fill-opacity="1" fill-rule="nonzero"/></g><g clip-path="url(#1c9019d520)"><path fill="#949494" d="M 210.179688 89.691406 L 210.179688 74.15625 L 223.261719 66.796875 L 223.261719 82.332031 Z M 210.179688 89.691406 " fill-opacity="1" fill-rule="nonzero"/></g><path fill="#efefef" d="M 210.179688 74.15625 L 210.179688 89.691406 L 197.105469 82.332031 L 197.105469 66.796875 Z M 210.179688 74.15625 " fill-opacity="1" fill-rule="nonzero"/><g clip-path="url(#9a676babb9)"><path fill="#d6d6d6" d="M 223.261719 66.796875 L 210.179688 74.15625 L 197.105469 66.796875 L 210.179688 59.4375 Z M 223.261719 66.796875 " fill-opacity="1" fill-rule="nonzero"/></g></svg>