<svg xmlns="http://www.w3.org/2000/svg" xmlns:xlink="http://www.w3.org/1999/xlink" width="300" zoomAndPan="magnify" viewBox="0 0 224.87999 225" height="300" preserveAspectRatio="xMidYMid meet" version="1.0"><defs><clipPath id="ab3e47a0b3"><path d="M 10.425781 0.0585938 L 214 0.0585938 L 214 224 L 10.425781 224 Z M 10.425781 0.0585938 " clip-rule="nonzero"/></clipPath></defs><g clip-path="url(#ab3e47a0b3)"><path fill="#8cc84b" d="M 102.960938 3.050781 C 108.5625 -0.121094 115.703125 -0.136719 121.164062 3.050781 L 204.789062 50.21875 C 210.015625 53.164062 213.519531 59 213.46875 65.03125 L 213.46875 159.605469 C 213.503906 165.890625 209.660156 171.851562 204.144531 174.738281 L 120.96875 221.6875 C 119.546875 222.476562 118.046875 223.0625 116.46875 223.445312 C 114.886719 223.828125 113.285156 224 111.660156 223.953125 C 110.035156 223.910156 108.445312 223.652344 106.890625 223.179688 C 105.335938 222.710938 103.871094 222.042969 102.492188 221.179688 L 77.535156 206.746094 C 75.832031 205.730469 73.921875 204.925781 72.71875 203.277344 C 73.78125 201.847656 75.671875 201.667969 77.210938 201.035156 C 80.683594 199.929688 83.863281 198.234375 87.054688 196.441406 C 87.859375 195.878906 88.847656 196.089844 89.617188 196.59375 L 110.902344 208.910156 C 112.421875 209.785156 113.960938 208.632812 115.261719 207.894531 L 196.933594 161.777344 C 197.941406 161.285156 198.5 160.222656 198.417969 159.117188 L 198.417969 65.449219 C 198.527344 64.1875 197.808594 63.039062 196.667969 62.527344 L 113.703125 15.78125 C 113.210938 15.441406 112.671875 15.273438 112.074219 15.269531 C 111.480469 15.269531 110.9375 15.4375 110.445312 15.773438 L 27.601562 62.621094 C 26.480469 63.132812 25.710938 64.265625 25.851562 65.527344 L 25.851562 159.191406 C 25.753906 160.300781 26.339844 161.34375 27.355469 161.820312 L 49.496094 174.324219 C 53.652344 176.566406 58.757812 177.828125 63.335938 176.179688 C 64.335938 175.804688 65.261719 175.285156 66.101562 174.625 C 66.945312 173.964844 67.671875 173.191406 68.277344 172.3125 C 68.886719 171.429688 69.347656 170.476562 69.664062 169.453125 C 69.980469 168.429688 70.136719 167.382812 70.132812 166.308594 L 70.15625 73.207031 C 70.058594 71.824219 71.359375 70.683594 72.695312 70.824219 L 83.339844 70.824219 C 84.738281 70.789062 85.835938 72.273438 85.648438 73.660156 L 85.628906 167.355469 C 85.632812 175.675781 82.21875 184.726562 74.523438 188.8125 C 65.042969 193.714844 53.324219 192.6875 43.957031 187.972656 L 20.152344 174.800781 C 14.550781 172 10.792969 165.945312 10.828125 159.667969 L 10.828125 65.09375 C 10.839844 63.554688 11.050781 62.046875 11.464844 60.566406 C 11.882812 59.089844 12.484375 57.6875 13.273438 56.371094 C 14.0625 55.050781 15.011719 53.859375 16.117188 52.796875 C 17.226562 51.730469 18.453125 50.828125 19.800781 50.09375 Z M 127.074219 68.609375 C 139.164062 67.910156 152.109375 68.148438 162.992188 74.109375 C 171.414062 78.675781 176.082031 88.261719 176.238281 97.632812 C 176 98.894531 174.683594 99.59375 173.476562 99.503906 C 169.976562 99.496094 166.464844 99.554688 162.949219 99.484375 C 161.457031 99.539062 160.597656 98.167969 160.40625 96.847656 C 159.398438 92.367188 156.957031 87.929688 152.742188 85.765625 C 146.273438 82.523438 138.765625 82.683594 131.710938 82.753906 C 126.554688 83.035156 121.019531 83.476562 116.65625 86.503906 C 113.296875 88.800781 112.289062 93.507812 113.484375 97.164062 C 114.605469 99.847656 117.707031 100.710938 120.234375 101.507812 C 134.8125 105.320312 150.25 105.011719 164.550781 109.964844 C 170.46875 112.007812 176.257812 115.988281 178.289062 122.1875 C 180.933594 130.496094 179.777344 140.429688 173.878906 147.101562 C 169.089844 152.59375 162.117188 155.507812 155.148438 157.203125 C 145.886719 159.269531 136.28125 159.320312 126.878906 158.394531 C 118.035156 157.386719 108.835938 155.058594 102.011719 149.035156 C 96.171875 143.960938 93.328125 136.058594 93.609375 128.4375 C 93.679688 127.148438 94.960938 126.253906 96.199219 126.355469 L 106.699219 126.355469 C 108.113281 126.257812 109.152344 127.476562 109.222656 128.808594 C 109.871094 133.011719 111.476562 137.566406 115.199219 140.019531 C 122.382812 144.65625 131.394531 144.332031 139.613281 144.464844 C 146.425781 144.164062 154.070312 144.074219 159.636719 139.5625 C 162.578125 136.992188 163.4375 132.695312 162.648438 129 C 161.785156 125.875 158.445312 124.421875 155.644531 123.394531 C 141.257812 118.839844 125.644531 120.492188 111.398438 115.335938 C 105.617188 113.292969 100.023438 109.425781 97.800781 103.476562 C 94.699219 95.070312 96.121094 84.652344 102.652344 78.207031 C 108.957031 71.796875 118.195312 69.324219 126.949219 68.441406 Z M 127.074219 68.609375 " fill-opacity="1" fill-rule="nonzero"/></g></svg>