<svg xmlns="http://www.w3.org/2000/svg" xmlns:xlink="http://www.w3.org/1999/xlink" width="300" zoomAndPan="magnify" viewBox="0 0 224.87999 225" height="300" preserveAspectRatio="xMidYMid meet" version="1.0"><defs><clipPath id="61acd2130e"><path d="M 3.269531 200 L 42 200 L 42 221 L 3.269531 221 Z M 3.269531 200 " clip-rule="nonzero"/></clipPath><clipPath id="6a9ed5f3ae"><path d="M 19 138 L 98 138 L 98 224.9375 L 19 224.9375 Z M 19 138 " clip-rule="nonzero"/></clipPath></defs><g clip-path="url(#61acd2130e)"><path fill="#f15a24" d="M 41.398438 218.894531 L 3.269531 220.214844 L 22.816406 200.324219 Z M 41.398438 218.894531 " fill-opacity="1" fill-rule="nonzero"/></g><path fill="#f15a24" d="M 214.339844 120.242188 C 207.261719 175.519531 156.742188 214.578125 101.519531 207.476562 C 46.292969 200.390625 7.277344 149.828125 14.355469 94.550781 C 21.445312 39.273438 71.949219 0.214844 127.1875 7.308594 C 182.414062 14.402344 221.4375 64.96875 214.339844 120.242188 " fill-opacity="1" fill-rule="nonzero"/><path fill="#999999" d="M 140.054688 78.710938 C 146.679688 85.757812 140.144531 102.425781 140.144531 102.425781 C 140.144531 102.425781 133.679688 125.984375 96.683594 156.539062 L 89.769531 149.761719 L 136.746094 101.710938 L 137.648438 100.484375 C 138.902344 98.441406 139.929688 78.574219 140.054688 78.710938 " fill-opacity="1" fill-rule="nonzero"/><path stroke-linecap="round" transform="matrix(0.82909, 0, 0, 0.829847, 3.270982, 6.07215)" fill="none" stroke-linejoin="round" d="M 164.980526 87.532768 C 172.971215 96.024546 165.088891 116.110143 165.088891 116.110143 C 165.088891 116.110143 157.291373 144.499231 112.668843 181.318904 L 104.329504 173.151922 L 160.989894 115.248727 L 162.078248 113.770668 C 163.590637 111.308805 164.829759 87.368016 164.980526 87.532768 Z M 164.980526 87.532768 " stroke="#ffffff" stroke-width="1.918" stroke-opacity="1" stroke-miterlimit="4"/><path stroke-linecap="round" transform="matrix(0.82909, 0, 0, 0.829847, 3.270982, 6.07215)" fill-opacity="1" fill="#666666" fill-rule="nonzero" stroke-linejoin="round" d="M 92.098474 161.110919 L 164.858028 87.320944 C 168.56126 91.708049 169.338656 96.434072 168.269147 103.170067 C 167.548289 107.830189 159.49164 117.150433 159.49164 117.150433 L 104.329504 173.151922 " stroke="#ffffff" stroke-width="1.201" stroke-opacity="1" stroke-miterlimit="4"/><path fill="#ff931e" d="M 140.054688 78.753906 L 79.628906 139.769531 L 79.75 139.652344 L 79.730469 139.660156 L 64.738281 124.871094 C 95.996094 85.949219 116.210938 78.691406 116.210938 78.691406 C 116.210938 78.691406 129.375 73.550781 138.761719 77.539062 C 139.480469 77.925781 139.796875 78.148438 140.054688 78.753906 " fill-opacity="1" fill-rule="nonzero"/><path stroke-linecap="round" transform="matrix(0.82909, 0, 0, 0.829847, 3.270982, 6.07215)" fill="none" stroke-linejoin="round" d="M 164.980526 87.584547 L 92.098474 161.110919 L 92.24453 160.969703 L 92.220973 160.979118 L 74.138271 143.157681 C 111.839621 96.255198 136.221586 87.509232 136.221586 87.509232 C 136.221586 87.509232 152.09931 81.314564 163.421023 86.12061 C 164.287937 86.586622 164.669568 86.854932 164.980526 87.584547 Z M 164.980526 87.584547 " stroke="#ffffff" stroke-width="1.918" stroke-opacity="1" stroke-miterlimit="4"/><path fill="#999999" d="M 96.683594 156.539062 C 82.265625 168.421875 63.8125 187.09375 38.734375 200.113281 L 44.3125 223.980469 L 20.671875 200.671875 L 79.628906 139.769531 " fill-opacity="1" fill-rule="nonzero"/><g clip-path="url(#6a9ed5f3ae)"><path stroke-linecap="round" transform="matrix(0.82909, 0, 0, 0.829847, 3.270982, 6.07215)" fill="none" stroke-linejoin="round" d="M 112.668843 181.318904 C 95.278731 195.638188 73.021648 218.138576 42.773876 233.827654 L 49.501885 262.58861 L 20.987942 234.500783 L 92.098474 161.110919 " stroke="#ffffff" stroke-width="1.918" stroke-opacity="1" stroke-miterlimit="4"/></g><path stroke-linecap="round" transform="matrix(0.82909, 0, 0, 0.829847, 3.270982, 6.07215)" fill-opacity="1" fill="#f15a24" fill-rule="nonzero" stroke-linejoin="round" d="M 74.623555 143.397748 L 92.286934 160.997947 L 51.476 169.838057 L 74.232501 143.077658 Z M 74.623555 143.397748 " stroke="#ffffff" stroke-width="1.918" stroke-opacity="1" stroke-miterlimit="4"/><path fill="#999999" d="M 134.285156 61.046875 C 132.847656 74.027344 142.183594 85.710938 155.152344 87.15625 C 168.109375 88.597656 179.792969 79.246094 181.242188 66.273438 C 182.6875 53.296875 173.332031 41.601562 160.367188 40.15625 C 147.398438 38.722656 135.726562 48.0625 134.285156 61.046875 " fill-opacity="1" fill-rule="nonzero"/><path stroke-linecap="round" transform="matrix(0.82909, 0, 0, 0.829847, 3.270982, 6.07215)" fill="none" stroke-linejoin="round" d="M 158.021654 66.246836 C 156.287826 81.888842 167.548289 95.96806 183.190439 97.709721 C 198.818454 99.446676 212.910523 88.177653 214.658486 72.545062 C 216.401738 56.907763 205.117717 42.814424 189.480279 41.072762 C 173.838129 39.345221 159.760195 50.600123 158.021654 66.246836 Z M 158.021654 66.246836 " stroke="#ffffff" stroke-width="1.918" stroke-opacity="1" stroke-miterlimit="4"/><path fill="#666666" d="M 177.851562 76.722656 C 182.207031 70.351562 181.980469 60.816406 181.101562 57.992188 C 180.03125 54.535156 177.628906 48.910156 173.441406 45.988281 L 151.296875 66.40625 C 151.296875 66.40625 168.316406 84.710938 168.757812 84.773438 C 168.941406 84.792969 173.871094 82.535156 177.851562 76.722656 " fill-opacity="1" fill-rule="nonzero"/><path stroke-linecap="round" transform="matrix(0.82909, 0, 0, 0.829847, 3.270982, 6.07215)" fill="none" stroke-linejoin="round" d="M 210.568912 85.136806 C 215.822224 77.459372 215.548958 65.969111 214.488873 62.56581 C 213.197924 58.399943 210.300357 51.621584 205.249639 48.100603 L 178.540197 72.705106 C 178.540197 72.705106 199.068163 94.763018 199.600561 94.838333 C 199.822001 94.861869 205.767903 92.141111 210.568912 85.136806 Z M 205.178967 65.860846 C 205.178967 65.860846 207.742018 72.168486 204.491089 77.07809 Z M 205.178967 65.860846 " stroke="#ffffff" stroke-width="1.918" stroke-opacity="1" stroke-miterlimit="4"/><path fill="#666666" d="M 90.292969 149.769531 L 65.851562 154.117188 L 80.605469 138.773438 " fill-opacity="1" fill-rule="nonzero"/><path stroke-linecap="round" transform="matrix(0.82909, 0, 0, 0.829847, 3.270982, 6.07215)" fill="none" stroke-linejoin="round" d="M 104.960844 173.161336 L 75.481046 178.400443 L 93.276347 159.910585 M 75.306721 143.529549 L 112.791342 178.800555 " stroke="#ffffff" stroke-width="1.918" stroke-opacity="1" stroke-miterlimit="4"/></svg>