<svg xmlns="http://www.w3.org/2000/svg" xmlns:xlink="http://www.w3.org/1999/xlink" width="300" zoomAndPan="magnify" viewBox="0 0 224.87999 225" height="300" preserveAspectRatio="xMidYMid meet" version="1.0"><defs><clipPath id="27883f92a1"><path d="M 8 9 L 215 9 L 215 221.214844 L 8 221.214844 Z M 8 9 " clip-rule="nonzero"/></clipPath></defs><g clip-path="url(#27883f92a1)"><path fill="#000000" d="M 213.792969 136.261719 C 212.550781 132.519531 209.3125 129.910156 205.121094 129.28125 C 203.148438 128.992188 200.886719 129.113281 198.210938 129.667969 C 193.546875 130.628906 190.082031 130.996094 187.550781 131.070312 C 197.089844 114.976562 204.847656 96.625 209.3125 79.351562 C 216.53125 51.421875 212.671875 38.699219 208.160156 32.941406 C 196.234375 17.710938 178.824219 9.527344 157.828125 9.277344 C 146.628906 9.140625 136.792969 11.347656 131.667969 12.9375 C 126.890625 12.097656 121.75 11.625 116.367188 11.539062 C 106.265625 11.378906 97.335938 13.578125 89.714844 18.101562 C 85.492188 16.675781 78.714844 14.664062 70.890625 13.378906 C 52.488281 10.359375 37.652344 12.714844 26.804688 20.371094 C 13.667969 29.644531 7.578125 45.757812 8.703125 68.261719 C 9.0625 75.40625 13.058594 97.148438 19.359375 117.761719 C 22.976562 129.613281 26.835938 139.453125 30.828125 147.011719 C 36.488281 157.738281 42.546875 164.050781 49.347656 166.320312 C 53.160156 167.582031 60.085938 168.476562 67.371094 162.414062 C 68.292969 163.527344 69.527344 164.636719 71.160156 165.667969 C 73.238281 166.980469 75.777344 168.050781 78.3125 168.679688 C 87.449219 170.964844 96.007812 170.394531 103.308594 167.199219 C 103.355469 168.492188 103.386719 169.734375 103.417969 170.804688 C 103.46875 172.542969 103.515625 174.242188 103.582031 175.835938 C 104.007812 186.601562 104.742188 194.976562 106.917969 200.835938 C 107.039062 201.160156 107.199219 201.648438 107.367188 202.164062 C 108.449219 205.484375 110.261719 211.039062 114.867188 215.386719 C 119.648438 219.886719 125.421875 221.261719 130.707031 221.261719 C 133.359375 221.261719 135.890625 220.917969 138.113281 220.441406 C 146.023438 218.75 155.007812 216.167969 161.511719 206.914062 C 167.65625 198.171875 170.640625 185.007812 171.179688 164.25 C 171.25 163.664062 171.316406 163.105469 171.378906 162.566406 C 171.421875 162.214844 171.460938 161.84375 171.507812 161.472656 L 172.960938 161.601562 L 173.328125 161.625 C 181.386719 161.996094 191.242188 160.289062 197.292969 157.480469 C 202.078125 155.257812 217.402344 147.171875 213.792969 136.261719 " fill-opacity="1" fill-rule="nonzero"/></g><path fill="#336791" d="M 200.015625 138.382812 C 176.054688 143.324219 174.402344 135.214844 174.402344 135.214844 C 199.699219 97.695312 210.277344 50.078125 201.152344 38.429688 C 176.253906 6.636719 133.148438 21.671875 132.433594 22.058594 L 132.199219 22.101562 C 127.46875 21.121094 122.167969 20.535156 116.214844 20.4375 C 105.371094 20.257812 97.152344 23.277344 90.90625 28.007812 C 90.90625 28.007812 14.019531 -3.644531 17.597656 67.816406 C 18.355469 83.019531 39.402344 182.851562 64.503906 152.699219 C 73.675781 141.675781 82.542969 132.351562 82.542969 132.351562 C 86.945312 135.273438 92.210938 136.761719 97.738281 136.230469 L 98.167969 135.863281 C 98.039062 137.230469 98.09375 138.574219 98.34375 140.160156 C 91.875 147.375 93.777344 148.648438 80.847656 151.304688 C 67.769531 154 75.453125 158.792969 80.46875 160.046875 C 86.550781 161.570312 100.625 163.71875 110.132812 150.417969 L 109.753906 151.941406 C 112.28125 153.96875 114.0625 165.128906 113.765625 175.25 C 113.46875 185.371094 113.265625 192.320312 115.261719 197.746094 C 117.261719 203.171875 119.25 215.378906 136.242188 211.738281 C 150.441406 208.703125 157.804688 200.820312 158.828125 187.671875 C 159.550781 178.332031 161.195312 179.710938 161.300781 171.359375 L 162.613281 167.398438 C 164.136719 154.734375 162.855469 150.644531 171.605469 152.542969 L 173.734375 152.738281 C 180.171875 153.027344 188.597656 151.699219 193.546875 149.402344 C 204.195312 144.460938 210.511719 136.214844 200.007812 138.382812 L 200.015625 138.382812 " fill-opacity="1" fill-rule="nonzero"/><path fill="#ffffff" d="M 95.410156 74.617188 C 93.253906 74.316406 91.292969 74.59375 90.304688 75.34375 C 89.746094 75.765625 89.578125 76.25 89.53125 76.585938 C 89.410156 77.476562 90.027344 78.460938 90.40625 78.96875 C 91.496094 80.40625 93.082031 81.390625 94.644531 81.609375 C 94.878906 81.640625 95.105469 81.65625 95.324219 81.65625 C 97.941406 81.65625 100.316406 79.621094 100.527344 78.121094 C 100.792969 76.238281 98.054688 74.984375 95.410156 74.617188 " fill-opacity="1" fill-rule="nonzero"/><path fill="#ffffff" d="M 166.941406 74.675781 C 166.730469 73.203125 164.113281 72.78125 161.617188 73.128906 C 159.132812 73.472656 156.714844 74.597656 156.917969 76.074219 C 157.078125 77.222656 159.15625 79.183594 161.617188 79.183594 C 161.824219 79.183594 162.035156 79.171875 162.242188 79.140625 C 163.878906 78.914062 165.085938 77.871094 165.660156 77.273438 C 166.53125 76.359375 167.03125 75.339844 166.941406 74.675781 " fill-opacity="1" fill-rule="nonzero"/><path fill="#ffffff" d="M 207.984375 137.824219 C 207.074219 135.0625 204.132812 134.167969 199.242188 135.183594 C 184.738281 138.171875 179.542969 136.101562 177.832031 134.847656 C 189.113281 117.679688 198.386719 96.929688 203.390625 77.566406 C 205.765625 68.398438 207.074219 59.878906 207.175781 52.9375 C 207.296875 45.320312 206 39.71875 203.316406 36.300781 C 192.523438 22.511719 176.671875 15.117188 157.488281 14.914062 C 144.300781 14.765625 133.15625 18.136719 131 19.085938 C 126.453125 17.957031 121.492188 17.261719 116.09375 17.171875 C 106.191406 17.011719 97.636719 19.382812 90.554688 24.207031 C 87.472656 23.066406 79.519531 20.335938 69.789062 18.769531 C 52.972656 16.0625 39.609375 18.113281 30.074219 24.867188 C 18.695312 32.921875 13.441406 47.324219 14.460938 67.667969 C 14.804688 74.511719 18.707031 95.570312 24.863281 115.730469 C 32.972656 142.277344 41.785156 157.300781 51.054688 160.394531 C 52.140625 160.757812 53.394531 161.003906 54.773438 161.003906 C 58.15625 161.003906 62.300781 159.484375 66.617188 154.296875 C 73.785156 145.683594 80.472656 138.460938 82.941406 135.835938 C 86.585938 137.792969 90.59375 138.886719 94.6875 138.992188 C 94.695312 139.105469 94.703125 139.210938 94.710938 139.316406 C 93.886719 140.289062 93.21875 141.140625 92.640625 141.875 C 89.804688 145.472656 89.214844 146.222656 80.082031 148.097656 C 77.480469 148.636719 70.582031 150.054688 70.480469 154.894531 C 70.371094 160.175781 78.636719 162.390625 79.578125 162.625 C 82.863281 163.445312 86.023438 163.855469 89.039062 163.855469 C 96.378906 163.855469 102.832031 161.449219 107.988281 156.785156 C 107.828125 175.609375 108.617188 194.171875 110.871094 199.824219 C 112.726562 204.453125 117.253906 215.757812 131.554688 215.757812 C 133.648438 215.757812 135.960938 215.515625 138.5 214.96875 C 153.421875 211.769531 159.898438 205.183594 162.414062 190.652344 C 163.75 182.890625 166.054688 164.339844 167.132812 154.394531 C 169.421875 155.105469 172.363281 155.433594 175.546875 155.433594 C 182.175781 155.433594 189.832031 154.023438 194.625 151.792969 C 200.023438 149.296875 209.746094 143.15625 207.984375 137.824219 Z M 172.453125 70.605469 C 172.394531 73.542969 171.992188 76.210938 171.566406 78.992188 C 171.105469 81.984375 170.632812 85.078125 170.511719 88.835938 C 170.390625 92.488281 170.847656 96.289062 171.292969 99.96875 C 172.179688 107.390625 173.097656 115.03125 169.550781 122.574219 C 168.996094 121.59375 168.464844 120.53125 167.980469 119.347656 C 167.539062 118.277344 166.578125 116.5625 165.257812 114.1875 C 160.101562 104.949219 148.03125 83.3125 154.210938 74.480469 C 156.046875 71.855469 160.722656 69.152344 172.453125 70.605469 Z M 158.230469 20.859375 C 175.425781 21.238281 189.015625 27.664062 198.644531 39.957031 C 206.023438 49.386719 197.894531 92.292969 174.363281 129.304688 C 174.128906 129.007812 173.894531 128.710938 173.644531 128.402344 C 173.546875 128.28125 173.449219 128.152344 173.347656 128.03125 C 179.429688 117.992188 178.246094 108.066406 177.179688 99.257812 C 176.746094 95.640625 176.335938 92.226562 176.441406 89.023438 C 176.554688 85.625 177.003906 82.710938 177.429688 79.894531 C 177.972656 76.421875 178.511719 72.828125 178.367188 68.589844 C 178.476562 68.148438 178.519531 67.621094 178.460938 67 C 178.074219 62.9375 173.433594 50.78125 163.976562 39.777344 C 158.804688 33.757812 151.261719 27.023438 140.957031 22.480469 C 145.386719 21.5625 151.449219 20.707031 158.230469 20.855469 Z M 62.046875 150.503906 C 57.292969 156.214844 54.011719 155.117188 52.933594 154.765625 C 45.898438 152.414062 37.738281 137.558594 30.539062 114 C 24.3125 93.613281 20.675781 73.117188 20.386719 67.371094 C 19.480469 49.191406 23.886719 36.519531 33.496094 29.714844 C 49.128906 18.632812 74.832031 25.265625 85.160156 28.628906 C 85.011719 28.773438 84.855469 28.910156 84.710938 29.0625 C 67.761719 46.164062 68.164062 75.390625 68.207031 77.175781 C 68.203125 77.867188 68.261719 78.839844 68.339844 80.183594 C 68.632812 85.097656 69.175781 94.25 67.726562 104.609375 C 66.378906 114.234375 69.347656 123.660156 75.871094 130.457031 C 76.546875 131.164062 77.25 131.824219 77.980469 132.445312 C 75.078125 135.554688 68.765625 142.429688 62.046875 150.503906 Z M 80.160156 126.351562 C 74.902344 120.875 72.511719 113.242188 73.605469 105.433594 C 75.136719 94.480469 74.570312 84.953125 74.269531 79.832031 C 74.226562 79.117188 74.1875 78.488281 74.164062 77.992188 C 76.640625 75.796875 88.117188 69.65625 96.292969 71.527344 C 100.03125 72.382812 102.304688 74.925781 103.253906 79.292969 C 108.144531 101.921875 103.898438 111.351562 100.492188 118.933594 C 99.78125 120.488281 99.121094 121.96875 98.550781 123.492188 L 98.113281 124.675781 C 96.996094 127.664062 95.964844 130.433594 95.320312 133.066406 C 89.726562 133.050781 84.292969 130.664062 80.160156 126.351562 Z M 81.015625 156.875 C 79.382812 156.464844 77.917969 155.753906 77.054688 155.167969 C 77.773438 154.828125 79.054688 154.371094 81.273438 153.910156 C 92.023438 151.703125 93.683594 150.144531 97.300781 145.546875 C 98.140625 144.492188 99.074219 143.289062 100.378906 141.839844 L 100.378906 141.832031 C 102.328125 139.660156 103.214844 140.03125 104.828125 140.699219 C 106.132812 141.238281 107.40625 142.871094 107.921875 144.675781 C 108.164062 145.519531 108.4375 147.140625 107.542969 148.394531 C 99.96875 158.984375 88.9375 158.855469 81.015625 156.875 Z M 137.257812 209.167969 C 124.105469 211.980469 119.449219 205.28125 116.386719 197.613281 C 114.40625 192.671875 113.429688 170.359375 114.125 145.722656 C 114.132812 145.398438 114.085938 145.078125 113.996094 144.78125 C 113.914062 144.207031 113.792969 143.628906 113.625 143.042969 C 112.601562 139.457031 110.105469 136.464844 107.097656 135.214844 C 105.90625 134.722656 103.714844 133.8125 101.089844 134.492188 C 101.652344 132.179688 102.617188 129.570312 103.675781 126.753906 L 104.117188 125.5625 C 104.617188 124.226562 105.238281 122.832031 105.90625 121.367188 C 109.476562 113.433594 114.367188 102.574219 109.054688 78.039062 C 107.066406 68.851562 100.425781 64.363281 90.363281 65.40625 C 84.324219 66.03125 78.804688 68.460938 76.050781 69.859375 C 75.460938 70.15625 74.917969 70.449219 74.410156 70.730469 C 75.179688 61.46875 78.085938 44.164062 88.945312 33.21875 C 95.785156 26.324219 104.890625 22.921875 115.992188 23.105469 C 137.859375 23.460938 151.878906 34.675781 159.792969 44.019531 C 166.617188 52.074219 170.304688 60.1875 171.78125 64.558594 C 160.703125 63.433594 153.160156 65.621094 149.339844 71.078125 C 141.027344 82.953125 153.886719 106.003906 160.066406 117.074219 C 161.199219 119.105469 162.175781 120.859375 162.492188 121.609375 C 164.496094 126.480469 167.105469 129.730469 169.007812 132.113281 C 169.589844 132.839844 170.160156 133.546875 170.585938 134.160156 C 167.226562 135.125 161.199219 137.363281 161.75 148.53125 C 161.304688 154.136719 158.15625 180.367188 156.550781 189.644531 C 154.441406 201.890625 149.929688 206.445312 137.257812 209.167969 Z M 192.125 146.414062 C 188.691406 148.007812 182.945312 149.199219 177.492188 149.457031 C 171.464844 149.738281 168.394531 148.78125 167.679688 148.195312 C 167.339844 141.238281 169.925781 140.503906 172.675781 139.738281 C 173.101562 139.621094 173.527344 139.5 173.929688 139.363281 C 174.179688 139.5625 174.464844 139.765625 174.761719 139.964844 C 179.601562 143.160156 188.25 143.507812 200.4375 140.988281 C 200.488281 140.980469 200.535156 140.972656 200.574219 140.964844 C 198.933594 142.5 196.121094 144.5625 192.125 146.414062 Z M 192.125 146.414062 " fill-opacity="1" fill-rule="nonzero"/></svg>