<svg xmlns="http://www.w3.org/2000/svg" xmlns:xlink="http://www.w3.org/1999/xlink" width="100" zoomAndPan="magnify" viewBox="0 0 75 74.999997" height="100" preserveAspectRatio="xMidYMid meet" version="1.0"><defs><g/></defs><g fill="#ffffff" fill-opacity="1"><g transform="translate(9.757651, 21.362701)"><g><path d="M -0.914062 -1.917969 L -0.410156 -2.683594 L 1.839844 -2.789062 L 2.152344 -3.265625 L -0.195312 -3.152344 C 0.101562 -3.761719 0.0507812 -4.46875 -0.589844 -4.890625 C -1.175781 -5.277344 -1.949219 -5.207031 -2.550781 -4.292969 L -3.40625 -2.996094 L 0.34375 -0.523438 L 0.601562 -0.914062 Z M -1.273438 -2.152344 L -2.777344 -3.144531 L -2.199219 -4.027344 C -1.726562 -4.742188 -1.207031 -4.726562 -0.835938 -4.484375 C -0.460938 -4.234375 -0.25 -3.707031 -0.699219 -3.023438 Z M -1.273438 -2.152344 "/></g></g></g><g fill="#ffffff" fill-opacity="1"><g transform="translate(14.080383, 15.409313)"><g><path d="M 2.019531 -4.929688 C 1.15625 -5.871094 -0.230469 -5.953125 -1.175781 -5.085938 C -2.136719 -4.203125 -2.15625 -2.800781 -1.285156 -1.851562 C -0.417969 -0.910156 0.96875 -0.828125 1.914062 -1.699219 C 2.875 -2.582031 2.894531 -3.980469 2.019531 -4.929688 Z M 1.679688 -4.578125 C 2.359375 -3.839844 2.386719 -2.734375 1.628906 -2.035156 C 0.859375 -1.328125 -0.257812 -1.457031 -0.945312 -2.203125 C -1.625 -2.941406 -1.652344 -4.046875 -0.890625 -4.746094 C -0.121094 -5.453125 0.996094 -5.324219 1.679688 -4.578125 Z M 1.679688 -4.578125 "/></g></g></g><g fill="#ffffff" fill-opacity="1"><g transform="translate(20.544234, 10.104492)"><g><path d="M 1.628906 -0.851562 C 2.414062 -1.289062 2.601562 -2.078125 2.28125 -2.652344 C 2.136719 -2.914062 1.90625 -3.074219 1.640625 -3.164062 C 1.296875 -3.28125 0.855469 -3.242188 0.378906 -3.113281 C -0.296875 -2.933594 -0.652344 -2.992188 -0.851562 -3.347656 C -1.078125 -3.757812 -0.828125 -4.234375 -0.410156 -4.46875 C 0.113281 -4.757812 0.527344 -4.59375 0.835938 -4.339844 L 1.078125 -4.730469 C 0.644531 -5.097656 0.0390625 -5.222656 -0.613281 -4.859375 C -1.265625 -4.496094 -1.625 -3.773438 -1.25 -3.101562 C -0.945312 -2.554688 -0.386719 -2.410156 0.527344 -2.664062 C 1.1875 -2.847656 1.648438 -2.800781 1.875 -2.390625 C 2.105469 -1.976562 1.875 -1.496094 1.414062 -1.238281 C 0.875 -0.941406 0.429688 -1.085938 -0.0117188 -1.4375 L -0.265625 -1.054688 C 0.292969 -0.582031 0.941406 -0.46875 1.628906 -0.851562 Z M 1.628906 -0.851562 "/></g></g></g><g fill="#ffffff" fill-opacity="1"><g transform="translate(26.71654, 7.073789)"><g><path d="M 1.769531 -0.488281 C 2.632812 -0.746094 2.984375 -1.476562 2.792969 -2.109375 C 2.707031 -2.394531 2.515625 -2.601562 2.277344 -2.742188 C 1.960938 -2.929688 1.527344 -2.984375 1.03125 -2.960938 C 0.332031 -2.929688 -0.00390625 -3.0625 -0.121094 -3.453125 C -0.257812 -3.902344 0.0859375 -4.3125 0.546875 -4.453125 C 1.121094 -4.625 1.488281 -4.375 1.738281 -4.0625 L 2.058594 -4.394531 C 1.710938 -4.847656 1.144531 -5.09375 0.433594 -4.878906 C -0.28125 -4.664062 -0.785156 -4.03125 -0.5625 -3.292969 C -0.382812 -2.695312 0.132812 -2.4375 1.082031 -2.492188 C 1.765625 -2.53125 2.203125 -2.386719 2.339844 -1.9375 C 2.476562 -1.484375 2.148438 -1.0625 1.644531 -0.910156 C 1.054688 -0.734375 0.648438 -0.96875 0.292969 -1.40625 L -0.0351562 -1.085938 C 0.410156 -0.507812 1.019531 -0.261719 1.769531 -0.488281 Z M 1.769531 -0.488281 "/></g></g></g><g fill="#ffffff" fill-opacity="1"><g transform="translate(33.448857, 5.455089)"><g/></g></g><g fill="#ffffff" fill-opacity="1"><g transform="translate(38.363166, 5.123692)"><g><path d="M 1.449219 -4.390625 L 0.980469 -4.429688 L 0.625 0.0507812 L 1.09375 0.0859375 L 1.265625 -2.070312 L 1.296875 -2.066406 L 3.226562 0.257812 L 3.890625 0.308594 L 1.777344 -2.207031 L 4.144531 -4.175781 L 3.484375 -4.230469 L 1.320312 -2.410156 L 1.292969 -2.414062 Z M 1.449219 -4.390625 "/></g></g></g><g fill="#ffffff" fill-opacity="1"><g transform="translate(45.446882, 6.053375)"><g><path d="M 4.484375 -2.859375 L 4.613281 -3.273438 L 1.925781 -4.105469 L 0.597656 0.183594 L 3.304688 1.023438 L 3.433594 0.609375 L 1.175781 -0.09375 L 1.660156 -1.648438 L 3.703125 -1.015625 L 3.832031 -1.433594 L 1.789062 -2.066406 L 2.246094 -3.550781 Z M 4.484375 -2.859375 "/></g></g></g><g fill="#ffffff" fill-opacity="1"><g transform="translate(52.087217, 8.48653)"><g><path d="M 5 -1.8125 L 5.214844 -2.1875 L 2.777344 -3.585938 L 0.542969 0.3125 L 3.003906 1.71875 L 3.21875 1.34375 L 1.167969 0.167969 L 1.976562 -1.246094 L 3.835938 -0.183594 L 4.050781 -0.5625 L 2.195312 -1.625 L 2.96875 -2.976562 Z M 5 -1.8125 "/></g></g></g><g fill="#ffffff" fill-opacity="1"><g transform="translate(58.039029, 12.26359)"><g><path d="M 3.117188 2.941406 L 6.203125 -0.324219 L 5.863281 -0.644531 L 3.289062 2.085938 L 3.933594 -2.464844 L 3.539062 -2.839844 L 0.453125 0.429688 L 0.792969 0.75 L 3.421875 -2.035156 L 2.75 2.59375 Z M 3.117188 2.941406 "/></g></g></g><g fill="#ffffff" fill-opacity="1"><g transform="translate(63.643721, 18.167532)"><g><path d="M 5.277344 0.660156 L 5.640625 0.421875 L 4.105469 -1.929688 L 0.34375 0.523438 L 1.890625 2.898438 L 2.257812 2.660156 L 0.964844 0.679688 L 2.328125 -0.210938 L 3.5 1.582031 L 3.863281 1.34375 L 2.695312 -0.449219 L 3.996094 -1.300781 Z M 5.277344 0.660156 "/></g></g></g><g fill="#ffffff" fill-opacity="1"><g transform="translate(3.139501, 27.383886)"><g><path d="M -0.496094 1.769531 C -0.71875 2.640625 -0.277344 3.316406 0.363281 3.480469 C 0.652344 3.554688 0.925781 3.5 1.171875 3.367188 C 1.496094 3.195312 1.765625 2.847656 2.003906 2.410156 C 2.335938 1.796875 2.625 1.578125 3.019531 1.679688 C 3.472656 1.796875 3.648438 2.300781 3.527344 2.769531 C 3.382812 3.347656 2.976562 3.535156 2.578125 3.589844 L 2.699219 4.03125 C 3.265625 3.96875 3.769531 3.613281 3.953125 2.890625 C 4.136719 2.167969 3.855469 1.410156 3.113281 1.21875 C 2.507812 1.066406 2.019531 1.371094 1.574219 2.210938 C 1.253906 2.816406 0.90625 3.121094 0.449219 3.003906 C -0.0078125 2.886719 -0.199219 2.390625 -0.0703125 1.878906 C 0.0820312 1.28125 0.496094 1.054688 1.054688 0.980469 L 0.949219 0.53125 C 0.222656 0.613281 -0.304688 1.007812 -0.496094 1.769531 Z M -0.496094 1.769531 "/></g></g></g><g fill="#ffffff" fill-opacity="1"><g transform="translate(1.622297, 34.942264)"><g><path d="M 2.199219 4.855469 C 3.476562 4.871094 4.488281 3.921875 4.503906 2.636719 C 4.523438 1.332031 3.519531 0.355469 2.226562 0.339844 C 0.949219 0.320312 -0.0625 1.273438 -0.078125 2.558594 C -0.0976562 3.859375 0.90625 4.839844 2.199219 4.855469 Z M 2.175781 4.367188 C 1.171875 4.355469 0.347656 3.613281 0.363281 2.582031 C 0.375 1.539062 1.234375 0.8125 2.25 0.828125 C 3.253906 0.839844 4.078125 1.578125 4.0625 2.613281 C 4.050781 3.65625 3.183594 4.378906 2.175781 4.367188 Z M 2.175781 4.367188 "/></g></g></g><g fill="#ffffff" fill-opacity="1"><g transform="translate(2.077003, 44.159053)"><g><path d="M 2.667969 2.6875 L 3.089844 2.589844 L 2.621094 0.527344 L 4.195312 0.167969 L 4.707031 2.421875 L 5.136719 2.324219 L 4.519531 -0.386719 L 0.140625 0.609375 L 0.242188 1.070312 L 2.195312 0.625 Z M 2.667969 2.6875 "/></g></g></g><g fill="#ffffff" fill-opacity="1"><g transform="translate(4.210144, 51.561533)"><g><path d="M 4.355469 -0.257812 L 0.691406 1.46875 L 0.894531 1.898438 L 4.558594 0.175781 L 5.199219 1.527344 L 5.597656 1.339844 L 4.117188 -1.804688 L 3.714844 -1.617188 Z M 4.355469 -0.257812 "/></g></g></g><g fill="#ffffff" fill-opacity="1"><g transform="translate(7.883038, 58.530137)"><g><path d="M 3.859375 -2.390625 L 3.542969 -2.769531 L 1.007812 1.199219 L 1.339844 1.59375 L 5.066406 0.0351562 L 2.890625 3.433594 L 3.230469 3.835938 L 7.574219 2.023438 L 7.269531 1.660156 L 3.574219 3.222656 L 3.566406 3.214844 L 5.730469 -0.164062 L 5.386719 -0.574219 L 1.707031 0.96875 L 1.699219 0.960938 Z M 3.859375 -2.390625 "/></g></g></g><g fill="#ffffff" fill-opacity="1"><g transform="translate(15.316816, 66.272059)"><g><path d="M 0.410156 0.28125 L 1.46875 -0.382812 L 3.488281 1 L 3.242188 2.222656 L 3.652344 2.507812 L 4.59375 -2.296875 L 4.15625 -2.597656 L 0.015625 0.0078125 Z M 3.582031 0.542969 L 1.859375 -0.640625 L 4.09375 -2.050781 Z M 3.582031 0.542969 "/></g></g></g><g fill="#ffffff" fill-opacity="1"><g transform="translate(22.628368, 70.683809)"><g><path d="M 1.675781 -1.304688 L 2.53125 -0.972656 L 3.117188 1.199219 L 3.652344 1.40625 L 3.039062 -0.867188 C 3.695312 -0.707031 4.375 -0.90625 4.652344 -1.621094 C 4.902344 -2.277344 4.671875 -3.015625 3.648438 -3.410156 L 2.195312 -3.96875 L 0.582031 0.222656 L 1.023438 0.394531 Z M 1.832031 -1.707031 L 2.476562 -3.386719 L 3.464844 -3.007812 C 4.261719 -2.703125 4.359375 -2.191406 4.199219 -1.777344 C 4.039062 -1.355469 3.566406 -1.039062 2.804688 -1.332031 Z M 1.832031 -1.707031 "/></g></g></g><g fill="#ffffff" fill-opacity="1"><g transform="translate(30.445522, 73.181879)"><g><path d="M 3.980469 -3.527344 L 4.042969 -3.957031 L 1.257812 -4.359375 L 0.617188 0.0898438 L 3.425781 0.492188 L 3.488281 0.0585938 L 1.148438 -0.277344 L 1.378906 -1.890625 L 3.496094 -1.585938 L 3.558594 -2.015625 L 1.441406 -2.320312 L 1.660156 -3.859375 Z M 3.980469 -3.527344 "/></g></g></g><g fill="#ffffff" fill-opacity="1"><g transform="translate(38.231792, 73.816721)"><g/></g></g><g fill="#ffffff" fill-opacity="1"><g transform="translate(43.821704, 73.293171)"><g><path d="M 2.410156 -4.738281 L 2.3125 -5.164062 L -0.425781 -4.515625 L 0.609375 -0.144531 L 3.367188 -0.796875 L 3.265625 -1.222656 L 0.964844 -0.675781 L 0.589844 -2.261719 L 2.675781 -2.753906 L 2.574219 -3.179688 L 0.492188 -2.6875 L 0.132812 -4.199219 Z M 2.410156 -4.738281 "/></g></g></g><g fill="#ffffff" fill-opacity="1"><g transform="translate(51.414818, 71.065867)"><g><path d="M 3.824219 -1.933594 L 1.796875 -5.945312 L 1.382812 -5.734375 L 3.074219 -2.386719 L -0.984375 -4.539062 L -1.46875 -4.292969 L 0.558594 -0.28125 L 0.972656 -0.492188 L -0.753906 -3.90625 L 3.375 -1.707031 Z M 3.824219 -1.933594 "/></g></g></g><g fill="#ffffff" fill-opacity="1"><g transform="translate(59.233303, 66.526017)"><g><path d="M 1.339844 -5.40625 C 0.726562 -5.761719 -0.226562 -5.839844 -1.0625 -5.105469 C -2.035156 -4.253906 -2.097656 -2.855469 -1.242188 -1.882812 C -0.390625 -0.914062 0.925781 -0.753906 1.949219 -1.652344 C 2.933594 -2.515625 2.925781 -3.722656 2.175781 -4.574219 L 2.0625 -4.707031 L 0.273438 -3.132812 L 0.558594 -2.804688 L 1.96875 -4.042969 C 2.496094 -3.367188 2.265625 -2.515625 1.664062 -1.992188 C 0.84375 -1.265625 -0.21875 -1.457031 -0.894531 -2.226562 C -1.609375 -3.039062 -1.5 -4.125 -0.777344 -4.761719 C -0.0703125 -5.382812 0.648438 -5.261719 1.148438 -4.980469 Z M 1.339844 -5.40625 "/></g></g></g><g fill="#ffffff" fill-opacity="1"><g transform="translate(65.561012, 60.199445)"><g><path d="M 0.660156 -0.875 L -2.933594 -3.574219 L -3.214844 -3.199219 L 0.375 -0.5 Z M 0.660156 -0.875 "/></g></g></g><g fill="#ffffff" fill-opacity="1"><g transform="translate(68.82356, 55.436306)"><g><path d="M 1.824219 -3.878906 L -2.246094 -5.789062 L -2.441406 -5.371094 L 0.953125 -3.773438 L -3.570312 -2.96875 L -3.800781 -2.476562 L 0.265625 -0.566406 L 0.464844 -0.988281 L -3 -2.613281 L 1.609375 -3.421875 Z M 1.824219 -3.878906 "/></g></g></g><g fill="#ffffff" fill-opacity="1"><g transform="translate(72.148097, 47.067485)"><g><path d="M -3.28125 -4.183594 L -3.707031 -4.273438 L -4.273438 -1.519531 L 0.125 -0.613281 L 0.699219 -3.390625 L 0.269531 -3.476562 L -0.207031 -1.160156 L -1.800781 -1.488281 L -1.371094 -3.585938 L -1.796875 -3.675781 L -2.230469 -1.578125 L -3.753906 -1.890625 Z M -3.28125 -4.183594 "/></g></g></g><g fill="#ffffff" fill-opacity="1"><g transform="translate(73.295228, 39.273832)"><g><path d="M -4.113281 -3.367188 L -4.550781 -3.359375 L -4.503906 -0.550781 L -0.0117188 -0.625 L -0.0585938 -3.460938 L -0.496094 -3.453125 L -0.453125 -1.089844 L -2.085938 -1.0625 L -2.121094 -3.199219 L -2.554688 -3.195312 L -2.519531 -1.054688 L -4.074219 -1.027344 Z M -4.113281 -3.367188 "/></g></g></g><g fill="#ffffff" fill-opacity="1"><g transform="translate(72.72321, 31.408292)"><g><path d="M -2.027344 -0.628906 L -2.25 -1.519531 L -0.800781 -3.242188 L -0.9375 -3.800781 L -2.449219 -1.996094 C -2.691406 -2.628906 -3.246094 -3.070312 -3.992188 -2.886719 C -4.671875 -2.71875 -5.144531 -2.105469 -4.882812 -1.042969 L -4.511719 0.46875 L -0.148438 -0.605469 L -0.261719 -1.0625 Z M -2.445312 -0.527344 L -4.195312 -0.09375 L -4.449219 -1.121094 C -4.652344 -1.949219 -4.289062 -2.324219 -3.859375 -2.429688 C -3.421875 -2.539062 -2.890625 -2.332031 -2.695312 -1.539062 Z M -2.445312 -0.527344 "/></g></g></g><g fill="#ffffff" fill-opacity="1"><g transform="translate(44.47302, 45.717603)"><g><path d="M 4.765625 -9.421875 L 5.046875 -9.875 L 12.09375 -17.203125 L 15.0625 -17.203125 L 7.953125 -9.828125 L 15.46875 0 L 12.546875 0 L 6.265625 -8.359375 L 4.8125 -6.953125 L 4.828125 0 L 2.46875 0 L 2.46875 -17.203125 L 4.828125 -17.203125 L 4.828125 -10.28125 Z M 4.765625 -9.421875 "/></g></g></g><g fill="#ffffff" fill-opacity="1"><g transform="translate(15.51965, 45.717603)"><g><path d="M 11.953125 0 L 7.90625 -6.359375 C 7.769531 -6.335938 7.578125 -6.328125 7.328125 -6.328125 L 4.78125 -6.328125 L 4.78125 0 L 2.46875 0 L 2.46875 -17.203125 L 7.0625 -17.203125 C 8.238281 -17.203125 9.285156 -16.992188 10.203125 -16.578125 C 11.128906 -16.171875 11.851562 -15.566406 12.375 -14.765625 C 12.894531 -13.960938 13.15625 -13 13.15625 -11.875 C 13.15625 -10.8125 12.921875 -9.832031 12.453125 -8.9375 C 11.984375 -8.050781 11.265625 -7.378906 10.296875 -6.921875 L 14.640625 0 Z M 7.28125 -8.5625 C 8.519531 -8.5625 9.410156 -8.882812 9.953125 -9.53125 C 10.503906 -10.1875 10.78125 -10.9375 10.78125 -11.78125 C 10.78125 -12.289062 10.664062 -12.789062 10.4375 -13.28125 C 10.207031 -13.769531 9.84375 -14.175781 9.34375 -14.5 C 8.84375 -14.820312 8.210938 -14.984375 7.453125 -14.984375 L 4.78125 -14.984375 L 4.78125 -8.5625 Z M 7.28125 -8.5625 "/></g></g></g><path stroke-linecap="butt" transform="matrix(0.00000000000000002, -0.324459, 0.324846, 0.00000000000000002, 37.57372, 56.692458)" fill="none" stroke-linejoin="miter" d="M 0.00324269 0.999605 L 118.144676 0.999605 " stroke="#ffffff" stroke-width="2" stroke-opacity="1" stroke-miterlimit="4"/></svg>