<svg xmlns="http://www.w3.org/2000/svg" xmlns:xlink="http://www.w3.org/1999/xlink" width="300" zoomAndPan="magnify" viewBox="0 0 224.87999 225" height="300" preserveAspectRatio="xMidYMid meet" version="1.0"><path fill="#00d8ff" d="M 183.59375 78 C 181.308594 77.214844 178.9375 76.46875 176.492188 75.761719 C 176.894531 74.125 177.265625 72.507812 177.59375 70.917969 C 182.964844 44.816406 179.457031 23.785156 167.449219 16.863281 C 155.933594 10.222656 137.105469 17.144531 118.089844 33.695312 C 116.261719 35.285156 114.425781 36.96875 112.597656 38.734375 C 111.375 37.566406 110.160156 36.4375 108.941406 35.359375 C 89.011719 17.664062 69.039062 10.207031 57.042969 17.152344 C 45.542969 23.808594 42.136719 43.578125 46.976562 68.316406 C 47.445312 70.707031 47.992188 73.144531 48.609375 75.625 C 45.78125 76.429688 43.050781 77.285156 40.441406 78.195312 C 17.078125 86.339844 2.15625 99.105469 2.15625 112.347656 C 2.15625 126.019531 18.175781 139.742188 42.507812 148.0625 C 44.429688 148.71875 46.421875 149.335938 48.476562 149.925781 C 47.808594 152.605469 47.230469 155.234375 46.742188 157.804688 C 42.128906 182.113281 45.730469 201.410156 57.203125 208.023438 C 69.050781 214.859375 88.9375 207.832031 108.296875 190.914062 C 109.832031 189.578125 111.367188 188.152344 112.898438 186.671875 C 114.898438 188.585938 116.890625 190.402344 118.863281 192.109375 C 137.621094 208.246094 156.148438 214.765625 167.605469 208.136719 C 179.4375 201.28125 183.292969 180.542969 178.292969 155.320312 C 177.914062 153.390625 177.464844 151.425781 176.972656 149.425781 C 178.371094 149.011719 179.742188 148.578125 181.078125 148.140625 C 206.378906 139.753906 222.832031 126.210938 222.832031 112.347656 C 222.832031 99.058594 207.429688 86.207031 183.59375 78 Z M 178.113281 139.191406 C 176.90625 139.589844 175.664062 139.976562 174.40625 140.347656 C 171.613281 131.511719 167.84375 122.105469 163.226562 112.390625 C 167.628906 102.910156 171.25 93.628906 173.964844 84.847656 C 176.222656 85.5 178.414062 86.1875 180.527344 86.914062 C 200.945312 93.945312 213.402344 104.339844 213.402344 112.347656 C 213.402344 120.875 199.957031 131.953125 178.113281 139.191406 Z M 169.042969 157.148438 C 171.257812 168.300781 171.570312 178.386719 170.105469 186.273438 C 168.792969 193.359375 166.148438 198.085938 162.878906 199.972656 C 155.921875 203.996094 141.054688 198.765625 125.019531 184.964844 C 123.175781 183.378906 121.320312 181.6875 119.46875 179.90625 C 125.683594 173.101562 131.898438 165.199219 137.96875 156.414062 C 148.628906 155.476562 158.707031 153.921875 167.855469 151.8125 C 168.300781 153.628906 168.699219 155.40625 169.042969 157.148438 Z M 77.394531 199.273438 C 70.597656 201.679688 65.1875 201.746094 61.914062 199.859375 C 54.953125 195.84375 52.0625 180.34375 56.007812 159.5625 C 56.460938 157.183594 57 154.734375 57.621094 152.234375 C 66.660156 154.234375 76.664062 155.671875 87.355469 156.535156 C 93.464844 165.128906 99.859375 173.027344 106.300781 179.9375 C 104.894531 181.300781 103.488281 182.59375 102.09375 183.808594 C 93.535156 191.300781 84.953125 196.609375 77.394531 199.273438 Z M 45.5625 139.140625 C 34.800781 135.460938 25.914062 130.683594 19.824219 125.460938 C 14.347656 120.78125 11.585938 116.125 11.585938 112.347656 C 11.585938 104.316406 23.566406 94.0625 43.546875 87.097656 C 45.972656 86.25 48.507812 85.453125 51.144531 84.707031 C 53.90625 93.6875 57.527344 103.082031 61.898438 112.574219 C 57.46875 122.210938 53.796875 131.753906 51.007812 140.847656 C 49.128906 140.304688 47.3125 139.734375 45.5625 139.140625 Z M 56.230469 66.503906 C 52.085938 45.3125 54.839844 29.324219 61.769531 25.308594 C 69.152344 21.035156 85.476562 27.128906 102.679688 42.410156 C 103.785156 43.386719 104.886719 44.40625 106 45.464844 C 99.585938 52.347656 93.25 60.1875 87.195312 68.726562 C 76.816406 69.691406 66.882812 71.234375 57.75 73.304688 C 57.175781 70.996094 56.664062 68.722656 56.230469 66.503906 Z M 151.414062 90.011719 C 149.234375 86.238281 146.992188 82.554688 144.710938 78.972656 C 151.753906 79.863281 158.492188 81.046875 164.828125 82.492188 C 162.933594 88.585938 160.5625 94.960938 157.769531 101.496094 C 155.769531 97.691406 153.648438 93.863281 151.414062 90.011719 Z M 112.597656 52.203125 C 116.953125 56.914062 121.304688 62.171875 125.589844 67.878906 C 121.269531 67.675781 116.902344 67.570312 112.496094 67.570312 C 108.132812 67.570312 103.796875 67.671875 99.503906 67.871094 C 103.789062 62.21875 108.183594 56.96875 112.597656 52.203125 Z M 73.535156 90.074219 C 71.351562 93.855469 69.273438 97.667969 67.304688 101.488281 C 64.558594 94.976562 62.210938 88.574219 60.292969 82.390625 C 66.589844 80.984375 73.304688 79.832031 80.300781 78.957031 C 77.980469 82.574219 75.722656 86.28125 73.535156 90.074219 Z M 80.5 146.40625 C 73.273438 145.605469 66.457031 144.511719 60.164062 143.140625 C 62.113281 136.847656 64.511719 130.3125 67.316406 123.660156 C 69.289062 127.476562 71.375 131.289062 73.570312 135.082031 C 75.808594 138.941406 78.125 142.71875 80.5 146.40625 Z M 112.859375 173.15625 C 108.390625 168.335938 103.9375 163 99.582031 157.269531 C 103.804688 157.433594 108.117188 157.519531 112.496094 157.519531 C 116.996094 157.519531 121.445312 157.414062 125.8125 157.226562 C 121.519531 163.0625 117.175781 168.40625 112.859375 173.15625 Z M 157.855469 123.324219 C 160.804688 130.046875 163.292969 136.546875 165.269531 142.734375 C 158.871094 144.191406 151.957031 145.363281 144.683594 146.242188 C 146.976562 142.613281 149.234375 138.863281 151.460938 135.011719 C 153.707031 131.113281 155.839844 127.210938 157.855469 123.324219 Z M 143.285156 130.304688 C 139.839844 136.285156 136.296875 141.992188 132.703125 147.382812 C 126.160156 147.847656 119.390625 148.089844 112.496094 148.089844 C 105.625 148.089844 98.945312 147.882812 92.515625 147.457031 C 88.773438 142.003906 85.15625 136.277344 81.730469 130.355469 C 78.3125 124.453125 75.164062 118.496094 72.3125 112.574219 C 75.164062 106.644531 78.300781 100.675781 81.703125 94.785156 L 81.699219 94.785156 C 85.109375 88.875 88.695312 83.175781 92.402344 77.75 C 98.960938 77.253906 105.695312 76.996094 112.496094 76.996094 C 119.332031 76.996094 126.0625 77.257812 132.625 77.757812 C 136.277344 83.144531 139.839844 88.824219 143.261719 94.734375 C 146.71875 100.710938 149.898438 106.632812 152.769531 112.445312 C 149.90625 118.347656 146.734375 124.332031 143.285156 130.304688 Z M 162.734375 25.027344 C 170.128906 29.289062 173 46.476562 168.355469 69.011719 C 168.0625 70.449219 167.726562 71.914062 167.363281 73.398438 C 158.207031 71.285156 148.269531 69.714844 137.863281 68.738281 C 131.796875 60.105469 125.511719 52.253906 119.203125 45.457031 C 120.898438 43.828125 122.597656 42.269531 124.28125 40.800781 C 140.570312 26.625 155.804688 21.027344 162.734375 25.027344 Z M 112.496094 92.640625 C 123.375 92.640625 132.203125 101.460938 132.203125 112.347656 C 132.203125 123.226562 123.375 132.050781 112.496094 132.050781 C 101.617188 132.050781 92.789062 123.226562 92.789062 112.347656 C 92.789062 101.460938 101.617188 92.640625 112.496094 92.640625 Z M 112.496094 92.640625 " fill-opacity="1" fill-rule="nonzero"/></svg>